<svg width="23" height="24" viewBox="0 0 23 24" fill="none" xmlns="http://www.w3.org/2000/svg">
<g id="&#240;&#159;&#166;&#134; icon &#34;attachment&#34;">
<path id="Vector" d="M21.7487 11.3135L11.9392 21.1231C10.7375 22.3249 9.10755 23 7.40804 23C5.70851 23 4.07861 22.3249 2.87687 21.1231C1.67513 19.9214 1 18.2914 1 16.5919C1 14.8924 1.67513 13.2625 2.87687 12.0607L12.6863 2.25124C13.4875 1.45008 14.5742 1 15.7071 1C16.8402 1 17.9268 1.45008 18.7279 2.25124C19.5291 3.05241 19.9792 4.13901 19.9792 5.27202C19.9792 6.40503 19.5291 7.49164 18.7279 8.29279L8.90775 18.1023C8.50717 18.5029 7.96386 18.7279 7.39736 18.7279C6.83085 18.7279 6.28755 18.5029 5.88697 18.1023C5.4864 17.7017 5.26134 17.1585 5.26134 16.5919C5.26134 16.0254 5.4864 15.4821 5.88697 15.0815L14.9493 6.02988" stroke="#8698A8" stroke-width="2" stroke-linecap="round" stroke-linejoin="round"/>
</g>
</svg>
