<svg width="38" height="35" viewBox="0 0 38 35" fill="none" xmlns="http://www.w3.org/2000/svg">
<g id="&#240;&#159;&#166;&#134; icon &#34;camera&#34;">
<path id="Vector" d="M2 29.5556V12.3333C2 10.431 3.54213 8.88889 5.44444 8.88889H6.30556C7.38971 8.88889 8.41061 8.37844 9.06111 7.51111L12.8844 2.41333C13.0796 2.15314 13.3859 2 13.7111 2H24.7333C25.0587 2 25.3649 2.15314 25.56 2.41333L29.3833 7.51111C30.0338 8.37844 31.0548 8.88889 32.1389 8.88889H33C34.9024 8.88889 36.4444 10.431 36.4444 12.3333V29.5556C36.4444 31.4579 34.9024 33 33 33H5.44444C3.54213 33 2 31.4579 2 29.5556Z" stroke="#07122A" stroke-width="3" stroke-linecap="round" stroke-linejoin="round"/>
<path id="Vector_2" d="M19.2223 26.1113C23.0268 26.1113 26.1112 23.0269 26.1112 19.2224C26.1112 15.4178 23.0268 12.3335 19.2223 12.3335C15.4176 12.3335 12.3334 15.4178 12.3334 19.2224C12.3334 23.0269 15.4176 26.1113 19.2223 26.1113Z" stroke="#07122A" stroke-width="3" stroke-linecap="round" stroke-linejoin="round"/>
</g>
</svg>
