<svg width="22" height="14" viewBox="0 0 22 14" fill="none" xmlns="http://www.w3.org/2000/svg">
<g id="icons">
<path id="Path 35457" d="M14.5369 0C13.1524 0 11.799 0.410543 10.6479 1.17971C9.49673 1.94888 8.59952 3.04213 8.06971 4.32122C7.5399 5.6003 7.40127 7.00776 7.67137 8.36563C7.94147 9.7235 8.60815 10.9708 9.58712 11.9497C10.5661 12.9287 11.8134 13.5954 13.1712 13.8655C14.5291 14.1356 15.9366 13.997 17.2157 13.4672C18.4947 12.9373 19.588 12.0401 20.3572 10.889C21.1263 9.73785 21.5369 8.38447 21.5369 7C21.5369 5.14348 20.7994 3.36301 19.4866 2.05025C18.1739 0.737498 16.3934 0 14.5369 0ZM18.1899 4.856C18.1876 5.01377 18.1233 5.1643 18.0109 5.275L13.6909 9.593C13.6345 9.64993 13.5674 9.69501 13.4934 9.72558C13.4193 9.75615 13.34 9.7716 13.2599 9.771C13.0987 9.77108 12.9439 9.70788 12.8289 9.595L10.8639 7.629C10.807 7.57299 10.7619 7.5062 10.7311 7.43254C10.7004 7.35888 10.6847 7.27982 10.6849 7.2V7.193C10.6867 7.03406 10.7501 6.88204 10.8619 6.769C10.9182 6.71207 10.9853 6.66699 11.0594 6.63642C11.1334 6.60585 11.2128 6.5904 11.2929 6.591C11.3729 6.59027 11.4522 6.60556 11.5263 6.63596C11.6003 6.66635 11.6675 6.71125 11.7239 6.768L13.2609 8.3L17.1519 4.409L17.1629 4.398C17.2768 4.28709 17.4301 4.22594 17.5891 4.22801C17.7481 4.23007 17.8998 4.29517 18.0109 4.409C18.0671 4.46316 18.112 4.52807 18.1427 4.59986C18.1735 4.67166 18.1895 4.7489 18.1899 4.827V4.856Z" fill="#8698A8"/>
<path id="Path 35458" d="M6.67477 8.21448L5.31777 9.57048C5.19929 9.68181 5.0421 9.74259 4.87954 9.73992C4.71698 9.73726 4.56186 9.67135 4.4471 9.5562C4.33233 9.44104 4.26696 9.2857 4.26484 9.12313C4.26273 8.96057 4.32404 8.80358 4.43577 8.68548L6.12077 7.00048L4.43577 5.31648C4.32404 5.19838 4.26273 5.04139 4.26484 4.87882C4.26696 4.71626 4.33233 4.56092 4.4471 4.44576C4.56186 4.33061 4.71698 4.2647 4.87954 4.26204C5.0421 4.25937 5.19929 4.32015 5.31777 4.43148L6.67477 5.78748C6.99447 3.7082 8.12587 1.84064 9.82077 0.594478C8.75526 0.125335 7.58956 -0.0706433 6.42921 0.0242882C5.26887 0.11922 4.15053 0.502063 3.17544 1.13815C2.20035 1.77425 1.39931 2.6435 0.844841 3.66721C0.290377 4.69092 0 5.83676 0 7.00098C0 8.1652 0.290377 9.31104 0.844841 10.3347C1.39931 11.3585 2.20035 12.2277 3.17544 12.8638C4.15053 13.4999 5.26887 13.8827 6.42921 13.9777C7.58956 14.0726 8.75526 13.8766 9.82077 13.4075C8.12587 12.1613 6.99447 10.2938 6.67477 8.21448Z" fill="#8698A8"/>
</g>
</svg>
