<svg width="21" height="21" viewBox="0 0 21 21" fill="none" xmlns="http://www.w3.org/2000/svg">
<g id="&#240;&#159;&#166;&#134; icon &#34;instagram&#34;">
<path id="Vector" d="M10.2841 14.4103C12.563 14.4103 14.4104 12.5629 14.4104 10.284C14.4104 8.00512 12.563 6.15771 10.2841 6.15771C8.00524 6.15771 6.15784 8.00512 6.15784 10.284C6.15784 12.5629 8.00524 14.4103 10.2841 14.4103Z" stroke="#EA0E7C" stroke-width="2" stroke-linecap="round" stroke-linejoin="round"/>
<path id="Vector_2" d="M1 14.4105V6.15788C1 3.30926 3.30926 1 6.15788 1H14.4105C17.2591 1 19.5684 3.30926 19.5684 6.15788V14.4105C19.5684 17.2591 17.2591 19.5684 14.4105 19.5684H6.15788C3.30926 19.5684 1 17.2591 1 14.4105Z" stroke="#EA0E7C" stroke-width="2"/>
<path id="Vector_3" d="M15.9578 4.62132L15.9681 4.60986" stroke="#EA0E7C" stroke-width="2" stroke-linecap="round" stroke-linejoin="round"/>
</g>
</svg>
