<svg width="13" height="15" viewBox="0 0 13 15" fill="none" xmlns="http://www.w3.org/2000/svg">
<path d="M11.576 6.36184C11.576 10.4752 6.28776 14 6.28776 14C6.28776 14 1.00051 10.4741 1.00051 6.36184C0.990765 5.66125 1.12034 4.96571 1.3817 4.31562C1.64306 3.66554 2.031 3.07387 2.52298 2.575C3.01496 2.07613 3.60117 1.67999 4.24756 1.40961C4.89394 1.13923 5.58762 1 6.28827 1C6.98893 1 7.6826 1.13923 8.32899 1.40961C8.97537 1.67999 9.56158 2.07613 10.0536 2.575C10.5455 3.07387 10.9335 3.66554 11.1948 4.31562C11.4562 4.96571 11.5858 5.66125 11.576 6.36184Z" stroke="#07122A" stroke-linecap="round" stroke-linejoin="round"/>
<path d="M8.05022 6.36007C8.05022 6.70865 7.94686 7.04939 7.7532 7.33922C7.55955 7.62905 7.28429 7.85494 6.96225 7.98833C6.64022 8.12173 6.28585 8.15663 5.94398 8.08862C5.6021 8.02062 5.28807 7.85277 5.04159 7.60629C4.79511 7.35981 4.62726 7.04578 4.55926 6.7039C4.49125 6.36203 4.52615 6.00766 4.65955 5.68562C4.79294 5.36359 5.01883 5.08833 5.30866 4.89468C5.59849 4.70102 5.93923 4.59766 6.28781 4.59766C6.75523 4.59766 7.20351 4.78334 7.53402 5.11386C7.86454 5.44437 8.05022 5.89265 8.05022 6.36007Z" stroke="#07122A" stroke-linecap="round" stroke-linejoin="round"/>
</svg>
