<svg width="84" height="100" viewBox="0 0 84 100" fill="none" xmlns="http://www.w3.org/2000/svg">
<g id="Group_5754" clip-path="url(#clip0_6030_1109)">
<g id="Clip path group">
<mask id="mask0_6030_1109" style="mask-type:luminance" maskUnits="userSpaceOnUse" x="0" y="0" width="84" height="100">
<g id="clip-path">
<path id="Rectangle 1863" d="M84 0H0V100H84V0Z" fill="white"/>
</g>
</mask>
<g mask="url(#mask0_6030_1109)">
<g id="Group 5754">
<path id="Path 30003" d="M41.9995 47.4849C43.0056 47.4849 43.9891 47.1884 44.8257 46.6329C45.6622 46.0775 46.3142 45.288 46.6992 44.3642C47.0842 43.4405 47.185 42.4241 46.9887 41.4435C46.7924 40.4629 46.3079 39.5621 45.5965 38.8551C44.8851 38.1482 43.9787 37.6667 42.9919 37.4716C42.0052 37.2766 40.9823 37.3767 40.0528 37.7593C39.1233 38.1419 38.3289 38.7899 37.7699 39.6212C37.2109 40.4525 36.9126 41.4299 36.9126 42.4297C36.9126 43.7704 37.4485 45.0562 38.4025 46.0043C39.3565 46.9523 40.6504 47.4849 41.9995 47.4849Z" fill="#07122A"/>
<path id="Path 30004" d="M80.0155 30.0588H61.509C59.4386 26.78 56.7199 23.9532 53.5176 21.7497C50.3152 19.5461 46.696 18.0117 42.8792 17.2394C39.0624 16.4671 35.1276 16.473 31.3132 17.2569C27.4988 18.0407 23.8843 19.586 20.6887 21.7992C17.4932 24.0125 14.7831 26.8475 12.7228 30.1324C10.6625 33.4174 9.29482 37.0839 8.70273 40.9097C8.11065 44.7355 8.30646 48.641 9.27829 52.3894C10.2501 56.1378 11.9777 59.651 14.3564 62.7162L8.17374 62.7276C6.00499 62.7356 3.92767 63.5967 2.39598 65.1225C0.864293 66.6484 0.00284956 68.7148 0 70.8701C0.00670577 74.8703 0.833294 78.8273 2.42935 82.4996C4.02541 86.172 6.35749 89.4828 9.28336 92.2301C14.5412 97.2163 21.5294 99.9985 28.7971 99.9992C29.3739 99.9992 29.9535 99.9819 30.5359 99.9472C37.8569 99.4964 44.7294 96.2885 49.7529 90.9771C54.7765 85.6657 57.573 78.6506 57.5726 71.3613C57.5572 69.7161 57.0742 68.1086 56.1794 66.7243C59.7889 63.5647 62.5472 59.5592 64.2038 55.0715C69.5489 54.7748 74.5772 52.4574 78.2579 48.5943C81.9386 44.7313 83.9928 39.6154 83.9994 34.2954V34.0202C83.9981 32.9699 83.5776 31.9629 82.8302 31.2202C82.0828 30.4776 81.0694 30.0599 80.0125 30.0588M37.1551 24.4381C41.0584 24.4421 44.8833 25.5274 48.2002 27.5721C51.5172 29.6168 54.1948 32.5399 55.9326 36.0132C56.0421 36.231 56.1463 36.4506 56.2474 36.6714C56.3077 36.8012 56.3679 36.9298 56.4245 37.0609C56.5244 37.2894 56.6159 37.5204 56.7062 37.7519C56.7965 37.9835 56.8772 38.1989 56.9567 38.4244C57.0362 38.65 57.118 38.8822 57.1909 39.1131C57.2559 39.3231 57.3113 39.5367 57.3715 39.7509C57.4113 39.8933 57.4522 40.0363 57.4919 40.1799C57.5473 40.3953 57.5955 40.6131 57.6437 40.8315C57.6762 40.9805 57.7081 41.1306 57.7376 41.279C57.7777 41.4892 57.8158 41.7008 57.852 41.9138C57.8797 42.0834 57.9052 42.2541 57.9284 42.426C57.9555 42.6205 57.982 42.8149 58.0031 43.0106C58.0272 43.226 58.044 43.4437 58.0633 43.6609C58.0753 43.8177 58.0904 43.9739 58.0994 44.1312C58.1199 44.5123 58.1325 44.8959 58.1325 45.2812C58.1325 45.6665 58.1199 46.0656 58.097 46.4575C58.0916 46.5544 58.0814 46.6501 58.0747 46.7459C58.0537 47.045 58.0278 47.3442 57.9941 47.6433C57.9826 47.7457 57.9676 47.8468 57.9543 47.9491C57.9164 48.2452 57.8718 48.5414 57.8201 48.8352C57.8038 48.9327 57.7863 49.0296 57.7677 49.1272C57.7111 49.4263 57.6473 49.7291 57.5762 50.0282C56.9108 52.8292 55.6707 55.4636 53.9337 57.7664C52.1967 60.0693 50 61.991 47.4813 63.4114C47.2364 63.5494 46.989 63.6827 46.7389 63.8111C46.6221 63.8709 46.5053 63.9308 46.3867 63.9906C46.017 64.1701 45.6437 64.3436 45.2644 64.5016C45.2379 64.5129 45.2102 64.5225 45.1838 64.5333C44.8153 64.6853 44.442 64.8253 44.0651 64.9557C43.9844 64.9838 43.9025 65.0107 43.8243 65.0383C43.463 65.1579 43.1018 65.268 42.7405 65.3679C42.6924 65.3817 42.6448 65.3955 42.596 65.4086C41.7588 65.6312 40.9084 65.8021 40.0499 65.9202C39.9542 65.9327 39.8566 65.9447 39.7603 65.9567C39.4291 65.9966 39.097 66.0295 38.7639 66.0554C38.6543 66.0638 38.5453 66.0739 38.4351 66.0805C38.0137 66.1063 37.5868 66.1224 37.1611 66.1224C36.7355 66.1224 36.3062 66.1063 35.8799 66.0799C35.7679 66.0733 35.656 66.0632 35.544 66.0548C35.211 66.0291 34.8817 65.995 34.5481 65.9549C34.4482 65.9429 34.3476 65.931 34.2471 65.9172C33.3921 65.7989 32.5454 65.6278 31.7118 65.405C31.6371 65.3853 31.5637 65.3631 31.4896 65.3422C31.1496 65.2477 30.8121 65.144 30.4769 65.0311C30.3812 64.9994 30.2849 64.9683 30.1897 64.9342C29.8044 64.7995 29.4221 64.6553 29.0458 64.498L28.9525 64.4579C28.6003 64.3089 28.2541 64.1474 27.9103 63.9792C27.7658 63.908 27.6231 63.8344 27.4804 63.7603C27.2564 63.6438 27.0345 63.5241 26.8145 63.4013C22.7872 61.132 19.6289 57.602 17.8322 53.3619C16.0355 49.1218 15.7014 44.41 16.8821 39.9613C18.0627 35.5127 20.6917 31.5775 24.3589 28.7695C28.0262 25.9614 32.5255 24.4385 37.1551 24.4381ZM49.6867 71.0346C49.7352 71.1482 49.7604 71.2702 49.7607 71.3936C49.7574 76.7005 47.7187 81.8067 44.0598 85.6722C40.4009 89.5377 35.397 91.8719 30.0669 92.1995C27.2445 92.3697 24.4171 91.9585 21.7621 90.9917C19.1072 90.0249 16.6818 88.5234 14.6382 86.5813C12.4862 84.5607 10.7709 82.1256 9.59719 79.4244C8.42345 76.7233 7.81579 73.8129 7.81129 70.8707C7.81097 70.7706 7.85049 70.6745 7.92121 70.6034C7.99194 70.5322 8.08813 70.4917 8.18879 70.4907L23.4941 70.4614C23.6512 70.5464 23.8144 70.6188 23.9757 70.7007C24.2738 70.8539 24.573 71.0059 24.8789 71.1489C25.0679 71.238 25.26 71.3218 25.4508 71.4062C25.7787 71.5514 26.1097 71.691 26.4436 71.825C26.6056 71.8896 26.7676 71.9548 26.9307 72.0165C27.3594 72.1788 27.7927 72.3312 28.2306 72.4736C28.3028 72.4963 28.3733 72.5226 28.4461 72.546C29.5179 72.8843 30.609 73.159 31.7136 73.3687C31.834 73.3914 31.9496 73.4105 32.0682 73.4315C32.4929 73.5073 32.9203 73.5737 33.3506 73.6307C33.5023 73.6511 33.6517 73.6708 33.8052 73.6905C34.2176 73.7384 34.6324 73.7755 35.0503 73.806C35.1978 73.8168 35.3453 73.8312 35.494 73.8395C36.0455 73.8706 36.6 73.891 37.1593 73.891C37.6867 73.891 38.2105 73.8748 38.7307 73.8461C38.8512 73.8395 38.9716 73.827 39.092 73.8186C39.4984 73.7917 39.903 73.7588 40.304 73.7163C40.431 73.7019 40.5574 73.6834 40.6845 73.6678C41.083 73.6193 41.4804 73.5649 41.8736 73.5003C41.994 73.4799 42.118 73.4572 42.2396 73.4357C42.6388 73.3639 43.0356 73.2861 43.4287 73.1963C43.5455 73.1706 43.6623 73.1431 43.7785 73.1162C44.1763 73.0228 44.5704 72.9211 44.961 72.811C45.0748 72.7793 45.188 72.7482 45.3012 72.7153C45.6945 72.5996 46.0841 72.4758 46.4698 72.3437C46.5794 72.3066 46.6889 72.2719 46.7979 72.2336C47.1971 72.0924 47.5908 71.9411 47.9816 71.7825C48.0743 71.7454 48.1682 71.7113 48.2597 71.673C48.7257 71.4792 49.1855 71.2737 49.6391 71.0567L49.6879 71.0352M65.8884 47.0378C65.8884 47.0019 65.8884 46.966 65.8921 46.9301C65.9234 46.3845 65.9432 45.8364 65.9432 45.2824C65.9432 44.7104 65.9215 44.1426 65.8878 43.579C65.8758 43.3773 65.8571 43.1775 65.8415 42.9765C65.812 42.6175 65.7777 42.2585 65.7349 41.8995C65.7072 41.6602 65.6777 41.4244 65.644 41.1881C65.5958 40.8542 65.5386 40.5233 65.4784 40.1937C65.4278 39.9172 65.3791 39.6402 65.3207 39.365C65.2268 38.923 65.123 38.4843 65.0094 38.0487C64.9895 37.9727 64.9763 37.8961 64.9558 37.8201H75.7034C75.0563 40.093 73.8024 42.1495 72.0747 43.7716C70.347 45.3938 68.2098 46.5212 65.8896 47.0343" fill="#07122A"/>
<path id="Path 30005" d="M15.309 29.0227C16.7869 27.5287 18.3824 26.1544 20.0804 24.9128C21.3812 23.8849 22.7782 22.9833 24.2522 22.2204C24.4677 22.0744 24.6736 21.9164 24.8982 21.7824C15.725 11.6756 7.12683 8.92334 7.12683 8.92334C3.84011 13.6716 9.11367 24.3408 14.3842 29.8645C14.6883 29.5821 14.9953 29.3009 15.309 29.0268" fill="#EFDFD1"/>
<path id="Path 30006" d="M15.9466 28.3677C17.2541 27.1354 18.6343 25.9816 20.0799 24.9124C20.3719 24.6898 20.6615 24.4762 20.9505 24.2668C18.5978 21.8022 15.9962 19.5847 13.1867 17.6494C13.1663 17.726 13.1332 17.7966 13.1157 17.8738C12.7189 19.1081 13.0428 22.2601 13.4137 23.4208C13.9692 25.2006 14.8255 26.8735 15.946 28.3677" fill="#F38A99"/>
<path id="Path 30007" d="M50.7257 21.6747C48.7703 20.8934 46.7554 20.2679 44.7002 19.8043C43.0941 19.3797 41.4507 19.1092 39.7927 18.9966C39.5368 18.9482 39.2815 18.8859 39.0244 18.8518C43.3636 5.9437 50.1345 0 50.1345 0C55.0606 3.04484 54.5188 14.9191 51.9112 22.078C51.5186 21.9392 51.1249 21.8033 50.7275 21.6771" fill="#EFDFD1"/>
<path id="Path 30008" d="M49.8792 21.3287C48.1853 20.719 46.4563 20.2103 44.7014 19.8053C44.3444 19.7174 43.9928 19.6366 43.6436 19.56C44.8073 16.3649 46.2989 13.2974 48.0947 10.4058C48.1434 10.4656 48.2031 10.52 48.2506 10.5853C49.1104 11.5587 50.0827 14.576 50.2098 15.7876C50.417 17.6396 50.3057 19.5132 49.8804 21.3281" fill="#F38A99"/>
</g>
</g>
</g>
</g>
<defs>
<clipPath id="clip0_6030_1109">
<rect width="84" height="100" fill="white"/>
</clipPath>
</defs>
</svg>
