<svg width="75" height="80" viewBox="0 0 75 80" fill="none" xmlns="http://www.w3.org/2000/svg">
<g clip-path="url(#clip0_6525_1095)">
<mask id="mask0_6525_1095" style="mask-type:luminance" maskUnits="userSpaceOnUse" x="0" y="0" width="75" height="80">
<path d="M75 0H0V80H75V0Z" fill="white"/>
</mask>
<g mask="url(#mask0_6525_1095)">
<mask id="mask1_6525_1095" style="mask-type:luminance" maskUnits="userSpaceOnUse" x="0" y="0" width="75" height="80">
<path d="M75 0H0V80H75V0Z" fill="white"/>
</mask>
<g mask="url(#mask1_6525_1095)">
<path d="M34.1847 36.4335C35.0036 36.4335 35.8041 36.1875 36.485 35.7267C37.1658 35.2659 37.6965 34.6109 38.0099 33.8446C38.3233 33.0783 38.4052 32.235 38.2455 31.4215C38.0857 30.608 37.6914 29.8607 37.1124 29.2742C36.5333 28.6877 35.7956 28.2883 34.9925 28.1265C34.1893 27.9647 33.3569 28.0477 32.6003 28.3651C31.8438 28.6826 31.1971 29.2201 30.7422 29.9097C30.2873 30.5994 30.0444 31.4102 30.0444 32.2397C30.0444 32.7904 30.1515 33.3358 30.3596 33.8446C30.5677 34.3534 30.8726 34.8157 31.2571 35.2051C31.6416 35.5946 32.098 35.9035 32.6003 36.1142C33.1026 36.325 33.641 36.4335 34.1847 36.4335Z" fill="#153B64"/>
<path d="M61.7168 49.0791L56.6844 49.0692C58.6217 46.5265 60.029 43.6118 60.821 40.5017C61.6129 37.3916 61.7731 34.151 61.2916 30.9764C60.8102 27.8018 59.6973 24.7593 58.0203 22.0333C56.3433 19.3074 54.1372 16.9549 51.5358 15.1184C48.9344 13.2819 45.9918 11.9996 42.8866 11.3495C39.7813 10.6993 36.578 10.6947 33.471 11.336C30.3639 11.9772 27.4178 13.251 24.8113 15.0801C22.2047 16.9091 19.9921 19.2553 18.3075 21.9764H3.24497C2.38475 21.9777 1.56013 22.3244 0.951855 22.9406C0.343584 23.5567 0.00128937 24.392 0 25.2633L0 25.4915C0.00486718 29.9052 1.6767 34.1497 4.67265 37.3546C7.66859 40.5595 11.7616 42.4819 16.1122 42.7275C17.4607 46.4505 19.7059 49.7734 22.6439 52.3945C21.9154 53.5429 21.5222 54.8765 21.5097 56.2415C21.5086 62.2889 23.7845 68.1091 27.8735 72.5156C31.9624 76.9221 37.5565 79.5832 43.5155 79.9563C43.9889 79.9852 44.4606 79.9997 44.9308 79.9997C50.8459 79.9996 56.5337 77.692 60.8133 73.556C63.1947 71.2766 65.0928 68.5299 66.3919 65.4832C67.6909 62.4365 68.3637 59.1537 68.3692 55.835C68.367 54.0471 67.6659 52.3328 66.4192 51.067C65.1726 49.8012 63.4819 49.0868 61.7168 49.0802M15.4584 28.6056C15.3653 28.9666 15.2806 29.3309 15.2044 29.6985C15.1573 29.9267 15.1172 30.156 15.0766 30.3859C15.0278 30.6602 14.9807 30.9346 14.9417 31.2089C14.9141 31.4053 14.8876 31.6023 14.8675 31.7992C14.8328 32.0949 14.8047 32.3923 14.7809 32.6913C14.7679 32.8559 14.7527 33.0238 14.7429 33.1906C14.7159 33.6585 14.698 34.1293 14.698 34.6044C14.698 35.0631 14.7142 35.5184 14.7397 35.9705C14.7397 36.0007 14.7397 36.0303 14.7424 36.0599C12.854 35.6342 11.1145 34.6989 9.70808 33.3533C8.3017 32.0077 7.28086 30.3018 6.75373 28.4163H15.5023C15.4855 28.4789 15.4747 28.5431 15.4584 28.6056ZM21.508 38.5458C21.4539 38.2978 21.3997 38.0487 21.352 37.7986C21.3372 37.7177 21.3232 37.6371 21.3098 37.5566C21.2683 37.3119 21.2322 37.0669 21.2015 36.8214C21.1912 36.7364 21.1793 36.6525 21.1701 36.5674C21.1419 36.3194 21.1213 36.0704 21.1034 35.8213C21.098 35.7412 21.0899 35.6616 21.0856 35.5815C21.0677 35.2562 21.0569 34.9308 21.0569 34.606C21.0569 34.2812 21.0671 33.9685 21.0839 33.652C21.091 33.5208 21.1034 33.3914 21.1132 33.2613C21.1273 33.0814 21.1408 32.9009 21.1603 32.722C21.1776 32.5574 21.1993 32.3978 21.221 32.2365C21.2405 32.0944 21.2605 31.9523 21.2833 31.8113C21.3114 31.635 21.3423 31.4596 21.3759 31.2851C21.3997 31.1606 21.4263 31.0372 21.4528 30.9137C21.4918 30.7327 21.5313 30.5522 21.5763 30.3733C21.6061 30.2537 21.6397 30.1352 21.6722 30.0167C21.7198 29.84 21.7669 29.6623 21.8206 29.4884C21.8791 29.2963 21.9451 29.1043 22.0107 28.9167C22.0762 28.729 22.1434 28.5431 22.2143 28.3582C22.2853 28.1733 22.3627 27.9741 22.4435 27.7854C22.4895 27.6757 22.5393 27.5698 22.5881 27.4622C22.6704 27.2795 22.7549 27.0974 22.8437 26.9163C24.0299 24.4945 25.7602 22.3882 27.8958 20.7666C30.0314 19.145 32.5127 18.0533 35.1404 17.5793C37.7681 17.1053 40.4689 17.2621 43.0259 18.0372C45.5829 18.8123 47.9248 20.184 49.8635 22.0422C51.8021 23.9004 53.2835 26.1932 54.1886 28.7365C55.0938 31.2798 55.3974 34.0026 55.0751 36.6864C54.7529 39.3701 53.8137 41.9399 52.3331 44.1892C50.8525 46.4386 48.8716 48.3049 46.5497 49.6381C46.3692 49.7413 46.1887 49.8413 46.0081 49.9382C45.8917 49.9997 45.7757 50.0611 45.6582 50.1198C45.3787 50.2592 45.0965 50.3942 44.81 50.5171C44.7845 50.528 44.7596 50.5395 44.7342 50.55C44.4271 50.6805 44.1162 50.8001 43.8025 50.9121C43.7251 50.94 43.6471 50.9669 43.5691 50.9922C43.2961 51.0854 43.0213 51.1714 42.7447 51.25C42.6846 51.2676 42.6245 51.2862 42.5638 51.3049C41.885 51.4893 41.1956 51.6311 40.4996 51.7295C40.4184 51.7411 40.3371 51.7509 40.2548 51.7614C39.984 51.7954 39.7132 51.8223 39.4423 51.8437C39.3513 51.8508 39.2603 51.859 39.1715 51.8651C38.8249 51.8865 38.4771 51.9002 38.1288 51.9002C37.7806 51.9002 37.4366 51.8865 37.0916 51.8651C37.0022 51.8596 36.9134 51.8513 36.824 51.8448C36.5532 51.8239 36.2824 51.797 36.0116 51.7625C35.933 51.7526 35.854 51.7433 35.7754 51.7323C35.0769 51.6343 34.3849 51.4927 33.7036 51.3082L33.5861 51.2742C33.2893 51.1913 32.9952 51.0992 32.7027 50.9999C32.6366 50.9774 32.5705 50.9549 32.5044 50.9313C32.1979 50.8215 31.8944 50.7047 31.5939 50.5807L31.5284 50.5549C31.2197 50.4232 30.9158 50.2806 30.6147 50.1308C30.5182 50.0825 30.4229 50.0315 30.3276 49.9816C30.1245 49.8757 29.923 49.7649 29.7237 49.6524C27.6733 48.4735 25.8854 46.8786 24.4717 44.9674C23.058 43.0563 22.0491 40.8701 21.508 38.5458ZM56.4547 68.8673C54.7916 70.4789 52.8176 71.725 50.6566 72.5275C48.4956 73.33 46.1942 73.6716 43.8968 73.5307C39.5581 73.2588 35.485 71.3219 32.5068 68.1145C29.5287 64.9071 27.8696 60.6704 27.8675 56.2673C27.8681 56.1651 27.8887 56.064 27.9281 55.97L27.9682 55.9886C28.3369 56.1689 28.7111 56.3394 29.091 56.4999C29.1658 56.5312 29.2421 56.5592 29.3174 56.5905C29.6354 56.7216 29.956 56.8472 30.281 56.9646C30.3693 56.9965 30.4587 57.0255 30.5475 57.0563C30.8616 57.166 31.1789 57.2688 31.4992 57.3646C31.5907 57.392 31.6833 57.4195 31.7754 57.4441C32.0939 57.5352 32.4147 57.6195 32.7379 57.6971C32.8327 57.7196 32.9275 57.7421 33.0228 57.7634C33.3427 57.8366 33.6654 57.9021 33.9907 57.9599C34.0898 57.978 34.1889 57.9972 34.2881 58.0147C34.6087 58.0696 34.9315 58.114 35.256 58.1546C35.3594 58.1672 35.4623 58.1826 35.5658 58.1941C35.8908 58.2303 36.2223 58.2572 36.5527 58.2792C36.6518 58.2863 36.7498 58.2967 36.8489 58.3022C37.2725 58.3252 37.6988 58.339 38.1278 58.339C38.5827 58.339 39.0345 58.3225 39.4819 58.2962C39.6027 58.289 39.7229 58.2775 39.8437 58.2682C40.1831 58.2433 40.5207 58.2115 40.8566 58.1727C40.98 58.1579 41.103 58.1415 41.2265 58.125C41.5771 58.0778 41.925 58.0229 42.2702 57.9604C42.3666 57.9428 42.4631 57.9269 42.5589 57.9055C43.458 57.7315 44.346 57.5036 45.2184 57.223C45.2769 57.2044 45.3348 57.1824 45.3933 57.1632C45.7497 57.0447 46.1025 56.9184 46.4517 56.7841C46.5844 56.7326 46.716 56.6788 46.8482 56.625C47.1201 56.5153 47.3893 56.3995 47.6558 56.2777C47.8118 56.207 47.9678 56.1378 48.1216 56.0638C48.3691 55.9453 48.6123 55.8196 48.855 55.6923C48.985 55.6243 49.1177 55.5645 49.246 55.4943L61.7038 55.5179C61.7858 55.5187 61.8641 55.5524 61.9217 55.6115C61.9793 55.6705 62.0116 55.7503 62.0114 55.8333C62.0076 58.2742 61.5128 60.6886 60.5575 62.9294C59.6022 65.1702 58.2062 67.1909 56.4547 68.8673Z" fill="#153B64"/>
<path d="M66.4868 28.8808L53.4701 26.9101C53.6077 24.4413 48.9203 21.6317 42.1406 19.8294C40.1965 19.3111 38.2255 18.9023 36.2367 18.6049C33.297 18.1465 30.3238 17.9446 27.35 18.0014C21.8155 18.1407 17.8529 19.3856 17.354 21.4441C18.1678 15.9234 20.7706 10.8334 24.753 6.97515C28.7353 3.11687 33.8711 0.709271 39.3522 0.131193C39.3566 0.131193 39.3566 0.131193 39.3614 0.127901C39.6095 0.105956 39.8576 0.0834614 40.1089 0.0664537C40.3109 0.0510918 40.5168 0.0368273 40.7215 0.0307923C40.832 0.0198196 40.9461 0.0141503 41.0638 0.0137846C41.7419 -0.00761227 42.4217 -0.00541773 43.1096 0.029695C43.2136 0.029695 43.3214 0.0390218 43.4243 0.0456055C43.5814 0.0554809 43.7384 0.0653564 43.895 0.0801696L44.1187 0.0999205C44.3115 0.115282 44.5032 0.135033 44.6988 0.160271C44.9978 0.192091 45.2946 0.232142 45.5925 0.27713C46.7789 0.456965 47.951 0.723382 49.0996 1.0743C49.3163 1.1394 49.5329 1.2089 49.7496 1.28278L50.0518 1.38373C50.1726 1.42488 50.2928 1.47041 50.4131 1.5165C51.0755 1.75461 51.7195 2.02618 52.3462 2.323C52.6939 2.48576 53.0357 2.65693 53.3715 2.83652L53.3677 2.83981C53.9386 3.13992 54.5003 3.45428 55.0425 3.79609C59.1592 6.38938 62.4366 10.1464 64.4704 14.6039C66.5042 19.0614 67.2056 24.0244 66.4879 28.8808" fill="#5B6570"/>
<path d="M53.3707 2.83629C48.2939 6.71679 44.2348 12.6701 42.1397 19.8292C40.1956 19.3108 38.2246 18.902 36.2358 18.6047C33.2961 18.1465 30.3229 17.9446 27.3491 18.0012C29.4967 10.3559 33.8754 4.05646 39.3519 0.13096C39.3568 0.13096 39.3568 0.13096 39.3616 0.127668C39.6097 0.105723 39.8578 0.0832288 40.1091 0.066221C40.3111 0.0514078 40.517 0.0365946 40.7217 0.0305596C40.83 0.0201355 40.9459 0.0141005 41.064 0.0135519C41.7422 -0.00729629 42.4219 -0.00565038 43.1098 0.0294624C43.2138 0.0294624 43.3216 0.0387892 43.4245 0.0453728C43.5816 0.0552483 43.7386 0.0651238 43.8952 0.0799369L44.1189 0.0996879C44.3112 0.11505 44.5034 0.135349 44.699 0.160038C44.998 0.191859 45.2948 0.231909 45.5927 0.276898C46.7792 0.456711 47.9513 0.723314 49.0998 1.07462C49.3165 1.13935 49.5331 1.20867 49.7498 1.28255L50.052 1.3835C50.1728 1.42465 50.2931 1.47073 50.4128 1.51627C51.0703 1.75822 51.7127 2.02979 52.3464 2.32331C52.6941 2.48571 53.0359 2.6567 53.3717 2.83629" fill="#7C8E9C"/>
<path d="M69.0365 51.505C71.3265 48.6471 70.6045 44.342 68.7359 41.026C66.2855 36.6759 65.7346 33.9826 66.4853 28.8732L53.4702 26.9102C52.2786 33.9755 53.9631 41.4183 57.3083 47.6322C59.3882 51.4024 65.2244 55.5759 69.0365 51.505Z" fill="#5B6570"/>
<path d="M66.4868 28.8808L53.4701 26.9101C53.6077 24.4413 48.9203 21.6317 42.1406 19.8294C40.1965 19.3111 38.2255 18.9023 36.2367 18.6049C33.297 18.1465 30.3238 17.9446 27.35 18.0014C21.8155 18.1407 17.8529 19.3856 17.354 21.4441C18.1678 15.9234 20.7706 10.8334 24.753 6.97515C28.7353 3.11687 33.8711 0.709271 39.3522 0.131193C39.3566 0.131193 39.3566 0.131193 39.3614 0.127901C39.6095 0.105956 39.8576 0.0834614 40.1089 0.0664537C40.3109 0.0510918 40.5168 0.0368273 40.7215 0.0307923C40.832 0.0198196 40.9461 0.0141503 41.0638 0.0137846C41.7419 -0.00761227 42.4217 -0.00541773 43.1096 0.029695C43.2136 0.029695 43.3214 0.0390218 43.4243 0.0456055C43.5814 0.0554809 43.7384 0.0653564 43.895 0.0801696L44.1187 0.0999205C44.3115 0.115282 44.5032 0.135033 44.6988 0.160271C44.9978 0.192091 45.2946 0.232142 45.5925 0.27713C46.7789 0.456965 47.951 0.723382 49.0996 1.0743C49.3163 1.1394 49.5329 1.2089 49.7496 1.28278L50.0518 1.38373C50.1726 1.42488 50.2928 1.47041 50.4131 1.5165C51.0755 1.75461 51.7195 2.02618 52.3462 2.323C52.6939 2.48576 53.0357 2.65693 53.3715 2.83652L53.3677 2.83981C53.9386 3.13992 54.5003 3.45428 55.0425 3.79609C59.1592 6.38938 62.4366 10.1464 64.4704 14.6039C66.5042 19.0614 67.2056 24.0244 66.4879 28.8808" fill="#BF864C"/>
<path d="M69.0365 51.505C71.3265 48.6471 70.6045 44.342 68.7359 41.026C66.2855 36.6759 65.7346 33.9826 66.4853 28.8732L53.4702 26.9102C52.2786 33.9755 53.9631 41.4183 57.3083 47.6322C59.3882 51.4024 65.2244 55.5759 69.0365 51.505Z" fill="#BF864C"/>
<path d="M69.9849 52.2826L69.954 52.3237L69.9242 52.3566C69.2252 53.1378 68.3437 53.7286 67.3606 54.0747C66.3775 54.4209 65.3242 54.5113 64.2976 54.3378C60.7802 53.8056 57.656 50.804 56.2423 48.2408C52.5218 41.3279 51.1076 33.7156 52.2537 26.7891C52.2342 25.5272 49.0358 22.9431 41.8341 21.0284C40.7126 20.7295 39.5585 20.4644 38.372 20.2328C37.6137 20.0847 36.8359 19.9503 36.0543 19.8323C35.9898 19.8225 35.9291 19.8131 35.8642 19.8077C33.057 19.3787 30.2195 19.1876 27.381 19.2365H27.2986C27.1535 19.2437 27.0089 19.247 26.868 19.2546C21.3828 19.4675 18.9503 20.7359 18.5755 21.6291C18.5625 21.6648 18.5528 21.701 18.5435 21.7389L17.3519 21.504H17.3481L17.3563 21.4492C17.6943 20.0529 19.6312 19.0275 22.5782 18.4723H22.5864C24.1606 18.1902 25.7544 18.0339 27.3528 18.0048C27.4308 18.0048 27.5099 17.9994 27.5917 18.0048C30.3986 17.9622 33.2042 18.154 35.9801 18.5782C36.0656 18.5869 36.1539 18.6007 36.239 18.6133C38.1201 18.898 39.9194 19.2667 41.5947 19.6952C41.7816 19.7402 41.9636 19.789 42.1461 19.8373C48.9237 21.6396 53.6127 24.4524 53.4751 26.9185C52.2835 33.9855 53.9658 41.4289 57.3121 47.6433C59.392 51.413 65.2271 55.5843 69.0408 51.5134C71.3287 48.6555 70.6083 44.3531 68.738 41.0344C67.3963 38.6533 66.6256 36.7671 66.3261 34.7114C67.2873 36.6765 68.4277 38.5463 69.7324 40.2965L69.8007 40.4194C71.736 43.8582 72.8008 48.7845 69.9886 52.293" fill="#75461C"/>
<path d="M66.5844 32.3672C66.7556 36.3306 64.7916 39.6367 62.1971 39.7519C59.6027 39.8671 57.3603 36.7476 57.1891 32.7842C57.0179 28.8208 58.9819 25.5142 61.5764 25.3995C64.1709 25.2849 66.4133 28.4039 66.5844 32.3672Z" fill="#75461C"/>
<path d="M66.8825 32.3535C67.045 36.1622 65.1596 39.3399 62.6659 39.4502C60.1721 39.5604 58.018 36.5632 57.8528 32.7568C57.6876 28.9503 59.5763 25.7705 62.0695 25.6602C64.5627 25.5499 66.7179 28.5476 66.8825 32.3563" fill="#75461C"/>
<path d="M66.4311 32.3741C66.5616 35.3965 65.0635 37.9153 63.0849 38.0058C61.1062 38.0963 59.3963 35.7147 59.2657 32.6917C59.1352 29.6687 60.6328 27.1478 62.6115 27.06C64.5901 26.9722 66.3006 29.3516 66.4311 32.3741Z" fill="#BF864C"/>
<path d="M66.4314 32.3743C66.5273 34.5859 65.431 36.4304 63.9832 36.4951C62.5354 36.5599 61.2842 34.8185 61.1889 32.6069C61.0936 30.3954 62.1893 28.5509 63.6371 28.4861C65.0849 28.4214 66.3356 30.1628 66.4314 32.3743Z" fill="#75461C"/>
<path d="M66.626 32.3649C66.6937 33.9302 65.9181 35.2354 64.8928 35.2809C63.8675 35.3265 62.983 34.0948 62.9152 32.5295C62.8475 30.9643 63.6232 29.6591 64.6485 29.6135C65.6738 29.568 66.5583 30.7997 66.626 32.3649Z" fill="#BF864C"/>
<path d="M37.7757 8.11504C37.4955 7.58323 37.1084 7.11679 36.6393 6.7458C36.1703 6.3748 35.6297 6.10749 35.0524 5.9611C33.4023 5.53057 31.7254 5.2142 30.033 5.01415C28.1003 4.7787 26.1507 4.7194 24.2076 4.83694C23.2936 4.89082 22.4324 5.28848 21.7928 5.95201C21.1531 6.61553 20.7812 7.49709 20.7498 8.42393C20.7129 9.72584 20.7498 11.121 20.8527 12.5678C20.9288 13.6971 21.3648 14.7708 22.0951 15.6275C22.8255 16.4842 23.8107 17.0776 24.9025 17.3184C26.0053 17.5379 27.1162 17.7134 28.2141 17.8407C29.1279 17.9466 30.0557 18.0234 30.9678 18.0651C32.2411 18.1082 33.4979 17.7634 34.5756 17.0753C35.6534 16.3872 36.5027 15.3876 37.0136 14.2055C37.4015 13.3276 37.7492 12.4498 38.0428 11.6027C38.2385 11.0343 38.3158 10.4309 38.27 9.83063C38.2241 9.23037 38.056 8.64625 37.7763 8.11504M35.9937 11.2741C35.7536 11.9935 35.4768 12.7181 35.1634 13.4478C34.8004 14.3101 34.1877 15.0406 33.4062 15.5427C32.6247 16.0449 31.7112 16.295 30.7864 16.2601C29.0671 16.1828 27.3563 15.9717 25.669 15.6286C24.9113 15.4649 24.2278 15.0533 23.7239 14.4572C23.22 13.8611 22.9237 13.1137 22.8806 12.3302C22.8084 11.1743 22.7934 10.0154 22.8356 8.8579C22.8611 8.28056 23.0969 7.73327 23.4976 7.32184C23.8983 6.91041 24.4353 6.66407 25.0049 6.63043C28.0363 6.48032 31.0727 6.79607 34.0108 7.56696C34.3889 7.66588 34.7429 7.84269 35.0506 8.08634C35.3584 8.33 35.6132 8.63527 35.7993 8.98312C35.9853 9.33097 36.0986 9.71392 36.1321 10.1081C36.1655 10.5023 36.1184 10.8992 35.9937 11.2741Z" fill="#D5424F"/>
<g opacity="0.5">
<mask id="mask2_6525_1095" style="mask-type:luminance" maskUnits="userSpaceOnUse" x="22" y="6" width="15" height="11">
<path d="M36.142 6.58496H22.8105V16.2646H36.142V6.58496Z" fill="white"/>
</mask>
<g mask="url(#mask2_6525_1095)">
<path d="M30.7857 16.2604C29.0664 16.1832 27.3556 15.9723 25.6683 15.6294C24.9107 15.4654 24.2273 15.0536 23.7235 14.4574C23.2196 13.8613 22.9232 13.114 22.8799 12.3305C22.8077 11.1747 22.7927 10.016 22.8349 8.85872C22.8602 8.28134 23.0961 7.73398 23.4968 7.32253C23.8975 6.91108 24.4346 6.66478 25.0042 6.63126C28.0356 6.48066 31.072 6.79624 34.0101 7.56723C34.3882 7.66616 34.7422 7.84297 35.0499 8.08662C35.3577 8.33028 35.6125 8.63555 35.7986 8.9834C35.9846 9.33125 36.0979 9.7142 36.1314 10.1084C36.1648 10.5025 36.1177 10.8995 35.993 11.2744C35.7536 11.9938 35.4768 12.7184 35.1627 13.4481C34.7999 14.3105 34.1873 15.0412 33.4057 15.5433C32.6242 16.0455 31.7106 16.2955 30.7857 16.2604Z" fill="#C97C46"/>
</g>
</g>
<path d="M36.3167 8.56454C35.8388 7.76795 35.0704 7.19415 34.1778 6.96746C32.7702 6.60668 31.3408 6.34001 29.8988 6.16919C28.2544 5.96895 26.5958 5.91644 24.9422 6.01228C24.2165 6.0475 23.5298 6.35503 23.0156 6.87499C22.5015 7.39495 22.1968 8.09013 22.1609 8.82514C22.12 10.0021 22.1381 11.1805 22.2151 12.3556C22.2776 13.2795 22.6356 14.1576 23.2347 14.8571C23.8339 15.5566 24.6417 16.0393 25.5359 16.2323C26.4821 16.4238 27.4419 16.5796 28.3876 16.6893C29.1746 16.7809 29.9735 16.8418 30.7627 16.8775C31.8169 16.917 32.8585 16.6341 33.7518 16.0657C34.6451 15.4973 35.3488 14.6696 35.7713 13.6905C36.0963 12.941 36.3839 12.1949 36.6271 11.474C36.7877 10.9955 36.8427 10.4871 36.7884 9.98469C36.734 9.48229 36.5715 8.99808 36.3124 8.56618M35.9874 11.2754C35.7474 11.993 35.4717 12.7199 35.1592 13.448C34.7956 14.3104 34.1824 15.041 33.4005 15.5432C32.6186 16.0455 31.7047 16.2959 30.7795 16.2614C29.0611 16.1835 27.3512 15.972 25.6648 15.6288C24.9079 15.4644 24.2253 15.0528 23.7218 14.4573C23.2182 13.8618 22.9216 13.1154 22.8775 12.3326C22.8038 11.1763 22.7875 10.0171 22.8288 8.85916C22.8552 8.28207 23.0915 7.73531 23.4923 7.32424C23.893 6.91316 24.4298 6.66686 24.9991 6.63279C28.0309 6.48191 31.0677 6.79636 34.0066 7.56547C34.3846 7.66463 34.7385 7.84163 35.046 8.08543C35.3535 8.32923 35.6081 8.63459 35.794 8.98247C35.9798 9.33036 36.0929 9.7133 36.1262 10.1074C36.1595 10.5015 36.1122 10.8984 35.9874 11.2732" fill="#D2D2CC"/>
<g opacity="0.8">
<mask id="mask3_6525_1095" style="mask-type:luminance" maskUnits="userSpaceOnUse" x="22" y="6" width="9" height="7">
<path d="M30.165 6.58398H22.8052V12.2915H30.165V6.58398Z" fill="white"/>
</mask>
<g mask="url(#mask3_6525_1095)">
<path d="M30.1645 6.82041C27.173 8.95131 25.7171 10.0469 22.887 12.292C22.8001 11.148 22.7845 9.99961 22.8404 8.85366C22.846 8.733 22.8641 8.61327 22.8946 8.49649C23.8663 7.73773 24.357 7.36136 25.3471 6.61522C26.9568 6.54209 28.5698 6.61074 30.1677 6.82041" fill="white"/>
</g>
</g>
<path d="M38.1687 11.6232C38.1796 12.5185 38.2321 13.4627 38.3215 14.4212C38.4321 15.7064 38.9207 16.9285 39.7242 17.9295C40.5276 18.9305 41.6089 19.6644 42.8285 20.0365C43.7065 20.2933 44.6072 20.5199 45.5058 20.7152C46.5847 20.95 47.6908 21.1431 48.8033 21.2923C49.913 21.4167 51.0325 21.1727 51.9935 20.5971C52.9545 20.0214 53.705 19.1453 54.132 18.1004C54.6845 16.7628 55.1611 15.4532 55.537 14.205C55.8003 13.3178 55.7271 12.3629 55.3317 11.5274C54.9362 10.692 54.247 10.0363 53.3991 9.68867C51.5982 8.94838 49.7352 8.37365 47.8327 7.97143C46.1674 7.61278 44.4799 7.36954 42.7819 7.24339C42.1888 7.19505 41.5923 7.27313 41.0309 7.47261C40.4695 7.6721 39.9556 7.98855 39.5223 8.40157C39.0895 8.81425 38.7457 9.31325 38.5126 9.86714C38.2796 10.421 38.1623 11.0178 38.1682 11.6199M43.2596 9.10217C46.2833 9.32368 49.2564 10.0081 52.0775 11.1321C52.6059 11.3488 53.0362 11.7562 53.2853 12.2755C53.5344 12.7948 53.5846 13.3893 53.4262 13.9439C53.1015 15.0543 52.7219 16.1475 52.2888 17.2193C52.0016 17.9473 51.486 18.5595 50.8213 18.9614C50.1567 19.3632 49.38 19.5324 48.611 19.4429C46.9061 19.2219 45.2206 18.868 43.5694 18.3846C42.6825 18.118 41.8963 17.5851 41.3147 16.8563C40.7332 16.1275 40.3837 15.237 40.3125 14.3027C40.2475 13.5099 40.2123 12.7331 40.2123 11.9737C40.213 11.5784 40.2941 11.1874 40.4504 10.8252C40.6068 10.463 40.8351 10.1372 41.1212 9.86829C41.4073 9.59936 41.745 9.39298 42.1133 9.26202C42.4816 9.13107 42.8725 9.07833 43.2618 9.10711" fill="#D5424F"/>
<g opacity="0.5">
<mask id="mask4_6525_1095" style="mask-type:luminance" maskUnits="userSpaceOnUse" x="40" y="9" width="14" height="11">
<path d="M53.5205 9.09961H40.2129V19.4716H53.5205V9.09961Z" fill="white"/>
</mask>
<g mask="url(#mask4_6525_1095)">
<path d="M53.4284 13.9466C53.1169 15.0236 52.7313 16.1209 52.2909 17.2231C52.0026 17.9506 51.4863 18.5619 50.8214 18.9631C50.1565 19.3643 49.3798 19.533 48.611 19.4434C46.9067 19.2233 45.2217 18.8702 43.571 18.3873C42.6934 18.1236 41.9144 17.5985 41.3354 16.8803C40.7564 16.1621 40.4041 15.284 40.3244 14.3603C40.3198 14.3423 40.317 14.324 40.3163 14.3054C40.248 13.5148 40.215 12.7347 40.2134 11.9776C40.2125 11.5989 40.2855 11.2239 40.4283 10.874C40.5712 10.5241 40.7809 10.2063 41.0456 9.93892C41.3102 9.67153 41.6245 9.45984 41.9702 9.31604C42.316 9.17223 42.6865 9.09917 43.0603 9.10105C43.128 9.09807 43.1959 9.09972 43.2634 9.10599C44.7831 9.22228 46.2923 9.45112 47.779 9.79069C49.2461 10.12 50.6841 10.5704 52.0786 11.1376C52.6074 11.3538 53.0381 11.761 53.2875 12.2805C53.5368 12.7999 53.587 13.3946 53.4284 13.9494" fill="#C97C46"/>
</g>
</g>
<path d="M39.5464 11.9603C39.5464 12.7218 39.586 13.5223 39.6547 14.3376C39.7453 15.402 40.1503 16.414 40.817 17.2419C41.4836 18.0698 42.3809 18.6751 43.3921 18.979C44.1504 19.1985 44.926 19.4015 45.6989 19.5699C46.6289 19.7718 47.586 19.9353 48.5415 20.0598C49.4489 20.1658 50.3656 19.9695 51.1531 19.5005C51.9405 19.0316 52.5556 18.3156 52.9055 17.461C53.3499 16.3725 53.7397 15.2619 54.0732 14.1335C54.2723 13.426 54.2041 12.6687 53.8818 12.0094C53.5596 11.35 53.0064 10.836 52.3302 10.5673C50.7963 9.94158 49.2107 9.45468 47.592 9.11235C46.1739 8.80792 44.7376 8.59844 43.2924 8.48526C42.375 8.40979 41.4653 8.70393 40.7608 9.30383C40.3786 9.62949 40.0718 10.0362 39.8619 10.4953C39.6521 10.9543 39.5444 11.4545 39.5464 11.9603ZM43.2615 9.10741C46.2855 9.32932 49.2589 10.0137 52.0805 11.1374C52.6085 11.3547 53.0384 11.762 53.2876 12.2811C53.5368 12.8002 53.5876 13.3944 53.4303 13.9491C53.1039 15.0595 52.7228 16.1527 52.2885 17.2245C52.0006 17.9515 51.4849 18.5627 50.8208 18.9641C50.1567 19.3655 49.3808 19.535 48.6124 19.4465C46.9081 19.2259 45.2231 18.8727 43.5724 18.3898C42.6854 18.1226 41.8991 17.5893 41.3173 16.8603C40.7355 16.1313 40.3855 15.2409 40.3134 14.3063C40.2473 13.5152 40.2159 12.7366 40.2153 11.9795C40.2152 11.584 40.2956 11.1927 40.4514 10.83C40.6072 10.4673 40.8351 10.1411 41.121 9.87156C41.4068 9.60206 41.7444 9.39513 42.1127 9.26365C42.481 9.13218 42.8721 9.079 43.2615 9.10741Z" fill="#D2D2CC"/>
<g opacity="0.8">
<mask id="mask5_6525_1095" style="mask-type:luminance" maskUnits="userSpaceOnUse" x="40" y="9" width="8" height="6">
<path d="M47.7796 9.09961H40.2129V14.3605H47.7796V9.09961Z" fill="white"/>
</mask>
<g mask="url(#mask5_6525_1095)">
<path d="M47.7796 9.79065C44.7269 11.5578 43.2353 12.4729 40.3239 14.3602C40.319 14.3424 40.3163 14.3239 40.3158 14.3054C40.2476 13.5148 40.2145 12.7346 40.2129 11.9775C40.2116 11.532 40.313 11.0924 40.5092 10.6937C41.5215 10.0502 42.0323 9.7314 43.0609 9.10266C43.1286 9.10014 43.1964 9.10197 43.264 9.10815C44.7838 9.22321 46.2932 9.45207 47.7796 9.79284" fill="white"/>
</g>
</g>
<path d="M38.856 16.1361C38.0933 14.7986 37.1113 14.6351 35.9663 15.6555C36.4657 12.4109 36.7159 10.7886 37.2153 7.54395C38.4243 7.73487 39.0282 7.83582 40.2334 8.04595C39.6825 11.2829 39.4068 12.9003 38.856 16.1361Z" fill="#75461C"/>
<path d="M20.3457 11.703L21.1945 11.7699C21.3261 9.64451 21.3922 8.5818 21.5238 6.45638H21.5065C21.343 6.44333 21.18 6.48663 21.0439 6.57926C20.9078 6.67188 20.8067 6.80839 20.7568 6.96661C20.2903 8.2642 19.9553 9.60649 19.757 10.9728C19.7467 11.06 19.7539 11.1484 19.7782 11.2327C19.8025 11.3171 19.8434 11.3956 19.8984 11.4635C19.9534 11.5314 20.0213 11.5874 20.0982 11.6281C20.1751 11.6688 20.2593 11.6933 20.3457 11.7002" fill="#75461C"/>
<path d="M65.4602 15.0656C61.5934 13.7691 59.2946 13.1311 54.9025 11.9307C54.382 13.9919 54.1214 15.0222 53.6025 17.0829C57.9855 18.28 62.0148 19.5386 66.2564 20.9727C66.373 21.0119 66.4969 21.0241 66.6188 21.0082C66.7407 20.9924 66.8576 20.949 66.9607 20.8812C67.0638 20.8135 67.1506 20.7232 67.2146 20.6169C67.2786 20.5106 67.3182 20.3911 67.3304 20.2672C67.43 19.3538 67.4482 18.4331 67.3846 17.5163C67.3366 16.9618 67.1286 16.4338 66.7866 15.9981C66.4447 15.5623 65.9837 15.2381 65.4612 15.0656" fill="#D5424F"/>
<path d="M61.7809 23.5324C60.7863 23.3577 59.8026 23.1243 58.8349 22.8334C57.7516 22.5042 57.1558 21.5359 57.5696 20.7579C58.8316 18.36 59.4328 15.662 59.3099 12.9475C59.2644 12.0384 60.2691 11.4053 61.4115 11.6308C62.4178 11.829 63.4078 12.1041 64.3732 12.4537C64.7137 12.5462 65.0187 12.7406 65.2485 13.0114C65.4783 13.2822 65.6221 13.6169 65.6612 13.9718C65.6861 17.73 65.3292 19.394 63.7551 22.739C63.5525 23.0672 63.2515 23.3212 62.8962 23.4638C62.5409 23.6065 62.1499 23.6303 61.7803 23.5318" fill="#75461C"/>
<path d="M72.0534 55.3249L69.6734 58.0681C66.6153 55.3447 65.4562 53.5018 64.3149 49.5423L67.7749 48.5186C68.6865 51.6798 69.6117 53.1518 72.0539 55.326" fill="#75461C"/>
<path d="M74.7865 57.4312L72.1764 60.4191C72.1026 60.5036 72.013 60.5726 71.9129 60.622C71.8127 60.6715 71.7039 60.7005 71.5927 60.7074C71.4815 60.7143 71.3701 60.6989 71.2647 60.6621C71.1594 60.6254 71.0622 60.5679 70.9788 60.4931L69.5072 59.1764C69.4236 59.1017 69.3555 59.011 69.3066 58.9095C69.2577 58.8081 69.2291 58.6979 69.2223 58.5852C69.2155 58.4726 69.2307 58.3596 69.267 58.2529C69.3034 58.1462 69.3601 58.0478 69.434 57.9634L72.0442 54.9755C72.118 54.8909 72.2076 54.822 72.3077 54.7725C72.4078 54.723 72.5166 54.694 72.6278 54.6871C72.7391 54.6803 72.8505 54.6956 72.9559 54.7324C73.0612 54.7692 73.1584 54.8266 73.2418 54.9014L74.7134 56.2181C74.7969 56.2929 74.865 56.3836 74.9138 56.485C74.9627 56.5865 74.9913 56.6967 74.9981 56.8093C75.0049 56.922 74.9897 57.0349 74.9534 57.1416C74.9171 57.2483 74.8604 57.3467 74.7865 57.4312Z" fill="#75461C"/>
</g>
</g>
</g>
<defs>
<clipPath id="clip0_6525_1095">
<rect width="75" height="80" fill="white"/>
</clipPath>
</defs>
</svg>
