<svg width="48" height="48" viewBox="0 0 48 48" fill="none" xmlns="http://www.w3.org/2000/svg">
<g id="Frame" clip-path="url(#clip0_6370_6266)">
<g id="taggle duck">
<path id="Path 33447" d="M24.0002 17.7482C23.4253 17.7482 22.8633 17.5774 22.3853 17.2574C21.9072 16.9374 21.5347 16.4826 21.3147 15.9504C21.0946 15.4183 21.0371 14.8328 21.1492 14.2679C21.2614 13.7029 21.5382 13.184 21.9448 12.7768C22.3513 12.3695 22.8692 12.0922 23.4331 11.9798C23.997 11.8674 24.5815 11.9251 25.1127 12.1455C25.6438 12.3659 26.0978 12.7392 26.4172 13.2181C26.7366 13.697 26.9071 14.26 26.9071 14.836C26.9071 15.6083 26.6009 16.3491 26.0557 16.8952C25.5106 17.4413 24.7712 17.7482 24.0002 17.7482Z" fill="#153B64"/>
<path id="Path 33448" d="M0 31.2192C0.00387263 33.5236 0.476198 35.8031 1.38815 37.9186C2.3001 40.0341 3.63256 41.9414 5.30433 43.5242C8.30908 46.3961 12.3024 47.9985 16.4553 47.9987C16.7852 47.9987 17.1165 47.9887 17.4492 47.9689C21.6326 47.7094 25.5599 45.8615 28.4305 42.8017C31.3011 39.7419 32.899 35.7006 32.8986 31.5015C32.89 30.5537 32.614 29.6276 32.1026 28.8301C34.1652 27.0098 35.7416 24.7024 36.6885 22.1171C39.7428 21.9462 42.6161 20.6112 44.7194 18.3859C46.8226 16.1605 47.9963 13.2133 48 10.1487V9.99023C47.9993 9.38508 47.7591 8.80487 47.332 8.37697C46.9049 7.94906 46.3258 7.7084 45.7217 7.70776H35.1496C33.9662 5.81971 32.4124 4.19204 30.5826 2.9233C28.7527 1.65457 26.6848 0.77118 24.5041 0.326721C22.3235 -0.117739 20.0754 -0.114049 17.8962 0.337569C15.717 0.789188 13.652 1.67934 11.8263 2.95408C10.0006 4.22882 8.4522 5.86163 7.27496 7.75356C6.09772 9.64548 5.31612 11.7571 4.97752 13.9606C4.63891 16.1641 4.75038 18.4135 5.30511 20.5725C5.85985 22.7316 6.84633 24.7553 8.20479 26.5212L4.67256 26.5276C3.4333 26.5324 2.24635 27.0285 1.37115 27.9075C0.495948 28.7865 0.00369718 29.9769 0.0020089 31.2184M37.1184 12.1798H43.2596C42.8896 13.4891 42.173 14.6738 41.1856 15.6083C40.1982 16.5428 38.9769 17.1922 37.651 17.4878C37.651 17.4673 37.651 17.4476 37.653 17.4259C37.6711 17.1114 37.6823 16.7954 37.6823 16.4769C37.6823 16.1471 37.6699 15.8202 37.6506 15.4953C37.6438 15.3791 37.6333 15.2641 37.6241 15.1487C37.6073 14.9408 37.5876 14.7345 37.5635 14.529C37.5474 14.3923 37.5306 14.2555 37.5113 14.1192C37.4836 13.927 37.4507 13.7368 37.4166 13.5466C37.3881 13.3858 37.3596 13.2277 37.3267 13.0693C37.2732 12.8143 37.2138 12.5614 37.1485 12.3105C37.1373 12.2671 37.1292 12.2224 37.1176 12.179M27.1327 26.9225C26.993 27.0029 26.8517 27.0796 26.7088 27.1525C26.6417 27.1875 26.5751 27.2225 26.5081 27.2563C26.2965 27.36 26.0834 27.4593 25.8659 27.5506C25.8506 27.557 25.835 27.5623 25.8197 27.5687C25.609 27.6564 25.3954 27.7368 25.1803 27.8124C25.1341 27.8285 25.0876 27.8438 25.041 27.8594C24.8359 27.9282 24.6296 27.9922 24.4209 28.0497L24.3406 28.0734C23.8622 28.2015 23.3764 28.2998 22.8859 28.3677C22.8305 28.3754 22.7752 28.3822 22.7202 28.389C22.5311 28.4128 22.3413 28.4293 22.1506 28.4457C22.088 28.4506 22.0258 28.4566 21.9628 28.4602C21.7219 28.4751 21.4783 28.4843 21.2347 28.4843C20.991 28.4843 20.7461 28.4747 20.5025 28.4598C20.4383 28.4562 20.3749 28.4502 20.3107 28.4454C20.1204 28.4306 19.9308 28.4114 19.7419 28.3878C19.6845 28.3806 19.6271 28.3742 19.5701 28.3661C19.0813 28.2977 18.5973 28.1991 18.1207 28.071C18.0781 28.0593 18.036 28.0468 17.9938 28.0348C17.7993 27.9812 17.6063 27.9214 17.415 27.8554C17.3604 27.8369 17.3055 27.8192 17.2509 27.7999C17.0309 27.7219 16.8125 27.639 16.597 27.5486L16.5436 27.5257C16.3429 27.44 16.1446 27.3467 15.9484 27.2498C15.8657 27.2096 15.7842 27.1662 15.7027 27.1236C15.5747 27.0568 15.4478 26.9868 15.3222 26.9152C13.6923 25.9893 12.3019 24.6933 11.2626 23.1314C10.2234 21.5695 9.5642 19.7851 9.33811 17.9217C9.11201 16.0583 9.32528 14.1677 9.96077 12.4018C10.5963 10.6359 11.6363 9.04394 12.9972 7.75375C14.3582 6.46357 16.0023 5.51111 17.7973 4.9729C19.5923 4.43469 21.4883 4.32574 23.333 4.65476C25.1777 4.98379 26.9197 5.74163 28.419 6.86743C29.9184 7.99323 31.1333 9.45562 31.9662 11.1371C32.0284 11.263 32.0866 11.3892 32.1456 11.5163C32.1797 11.5911 32.2146 11.6651 32.2471 11.7407C32.3037 11.8726 32.3559 12.0057 32.4077 12.1388C32.4595 12.2719 32.5056 12.3961 32.551 12.5264C32.5964 12.6567 32.6433 12.7902 32.6847 12.9233C32.722 13.0439 32.7549 13.1674 32.789 13.2901C32.8115 13.3725 32.8352 13.4549 32.8561 13.5378C32.8874 13.662 32.9154 13.7871 32.9427 13.913C32.9612 13.9986 32.9797 14.0847 32.9965 14.1707C33.0204 14.2922 33.0421 14.414 33.0619 14.5363C33.0777 14.6344 33.0922 14.7329 33.1053 14.8318C33.1206 14.9436 33.1358 15.0558 33.1482 15.1688C33.1615 15.2931 33.1715 15.4181 33.1808 15.5435C33.188 15.6336 33.1964 15.7237 33.2016 15.8142C33.2133 16.0342 33.2205 16.2565 33.2205 16.4769C33.2205 16.6973 33.2133 16.9285 33.2004 17.1541C33.1972 17.2099 33.1916 17.2651 33.1876 17.3209C33.1755 17.4939 33.1611 17.6668 33.1414 17.8389C33.1346 17.898 33.1266 17.9563 33.1189 18.015C33.0969 18.1859 33.072 18.356 33.0423 18.5257C33.0327 18.582 33.023 18.6379 33.0126 18.6938C32.98 18.8675 32.9431 19.0404 32.903 19.2129C32.5228 20.8265 31.8142 22.344 30.8217 23.6706C29.8291 24.9972 28.5739 26.1043 27.1347 26.9225M4.46667 31.2176C4.46656 31.1599 4.48919 31.1045 4.52963 31.0635C4.57007 31.0224 4.62504 30.9991 4.6826 30.9984L13.4285 30.9819C13.5184 31.031 13.6119 31.0724 13.7026 31.1194C13.8728 31.2079 14.0438 31.2952 14.2176 31.3776C14.326 31.4287 14.4351 31.477 14.5443 31.526C14.7316 31.6099 14.9207 31.6904 15.1115 31.7673C15.2042 31.8047 15.2969 31.8421 15.39 31.8774C15.6354 31.9713 15.8831 32.0591 16.133 32.1409C16.1731 32.1541 16.2133 32.1694 16.2558 32.1811C16.8684 32.3757 17.4919 32.534 18.1231 32.6552C18.1905 32.6681 18.2579 32.6793 18.3258 32.6914C18.5682 32.7348 18.8125 32.773 19.0587 32.806C19.145 32.8176 19.2313 32.8289 19.3184 32.8394C19.5536 32.8667 19.7912 32.8884 20.0297 32.9057C20.114 32.9117 20.1982 32.9202 20.2833 32.925C20.5984 32.9431 20.9152 32.9548 21.2347 32.9548C21.5361 32.9548 21.8367 32.9451 22.1325 32.929C22.202 32.9254 22.271 32.9182 22.3409 32.9133C22.5729 32.8977 22.8041 32.8792 23.0333 32.8542C23.1059 32.8462 23.1782 32.8353 23.2508 32.8265C23.4788 32.7983 23.7056 32.767 23.9304 32.7296C24.0002 32.7179 24.0696 32.7046 24.1395 32.6922C24.3675 32.6511 24.594 32.6057 24.819 32.5558C24.8857 32.541 24.9523 32.5253 25.0197 32.5096C25.2469 32.456 25.4721 32.3975 25.6953 32.3343C25.7603 32.3158 25.8249 32.2977 25.8895 32.2788C26.1143 32.212 26.337 32.1406 26.5575 32.0645C26.6197 32.0432 26.6827 32.0242 26.7449 32.0009C26.9729 31.9205 27.1983 31.8339 27.4212 31.7411C27.4742 31.7198 27.5276 31.7009 27.5818 31.6784C27.8478 31.5661 28.1106 31.4477 28.3701 31.3233C28.3794 31.3185 28.389 31.3149 28.3982 31.3105C28.4258 31.3759 28.4403 31.4461 28.4408 31.5171C28.4387 34.5743 27.2736 37.5158 25.1827 39.7426C23.0919 41.9694 20.2324 43.3141 17.1866 43.5029C15.5738 43.6009 13.9581 43.3639 12.441 42.807C10.9238 42.25 9.53792 41.385 8.37016 40.2662C7.14053 39.1021 6.16049 37.6993 5.48979 36.1433C4.81908 34.5874 4.47178 32.9109 4.46907 31.216" fill="#FFBE36"/>
<path id="Path 33449" d="M30.2454 18.0243L28.8004 14.2021C28.7501 14.0689 28.7329 13.9255 28.7503 13.7842C28.7678 13.6429 28.8192 13.5079 28.9003 13.391L31.2247 10.0329C31.318 9.89817 31.3717 9.73998 31.3799 9.57626C31.3881 9.41254 31.3503 9.2498 31.271 9.10644C31.1916 8.96309 31.0738 8.84484 30.9309 8.76509C30.7879 8.68534 30.6255 8.64728 30.4621 8.65518L26.3876 8.84898C26.2456 8.85576 26.1042 8.82787 25.9754 8.76769C25.8466 8.70752 25.7343 8.61686 25.6483 8.50355L23.1789 5.25077C23.0799 5.12035 22.9464 5.02032 22.7936 4.96194C22.6407 4.90356 22.4746 4.88916 22.3141 4.92041C22.1535 4.95166 22.0049 5.02729 21.885 5.13875C21.7651 5.25022 21.6786 5.3931 21.6356 5.55118L20.5606 9.49198C20.5231 9.62932 20.4529 9.7555 20.3559 9.85959C20.2589 9.96369 20.1381 10.0426 20.0039 10.0896L16.153 11.4375C15.9987 11.4915 15.8625 11.5878 15.7599 11.7153C15.6573 11.8429 15.5923 11.9967 15.5724 12.1593C15.5524 12.3219 15.5782 12.4868 15.6469 12.6355C15.7156 12.7841 15.8245 12.9106 15.9611 13.0005L19.3729 15.2432C19.4918 15.3212 19.5899 15.427 19.6588 15.5515C19.7277 15.676 19.7653 15.8154 19.7683 15.9577L19.8578 20.0433C19.8614 20.2071 19.9106 20.3667 20 20.504C20.0893 20.6412 20.2152 20.7507 20.3634 20.82C20.5116 20.8894 20.6762 20.9157 20.8386 20.8962C21.001 20.8767 21.1547 20.8121 21.2823 20.7096L24.465 18.1534C24.576 18.064 24.7072 18.003 24.8471 17.9758C24.9869 17.9486 25.1314 17.956 25.2677 17.9973L29.1736 19.1747C29.3303 19.2219 29.497 19.2243 29.6549 19.1816C29.8128 19.1389 29.9556 19.0527 30.0672 18.9329C30.1788 18.8131 30.2547 18.6643 30.2863 18.5036C30.3179 18.3428 30.304 18.1764 30.2461 18.0231" fill="#DD4319"/>
<path id="Path 33450" d="M22.3574 7.17601C22.2486 7.3755 22.2001 7.60245 22.2181 7.82907C22.1957 8.51191 22.0675 9.18708 21.838 9.83042C21.7978 9.94543 21.7577 10.0894 21.844 10.1762C21.8783 10.2055 21.9212 10.223 21.9662 10.2261C22.0112 10.2292 22.056 10.2178 22.0941 10.1936C22.169 10.143 22.2285 10.0726 22.2658 9.9901C22.554 9.44361 22.4814 8.77568 22.6821 8.19099C22.71 8.07465 22.782 7.9737 22.8828 7.90948C22.9467 7.88671 23.012 7.86803 23.0782 7.85357C23.7678 7.62114 22.8912 6.42482 22.3558 7.1768" fill="white"/>
<path id="Path 33451" d="M19.1543 11.9236C19.6202 11.8207 20.0727 11.6645 20.503 11.458C20.5599 11.4229 20.6279 11.4102 20.6936 11.4226C20.7166 11.4347 20.7367 11.4517 20.7525 11.4723C20.7684 11.4929 20.7795 11.5167 20.7853 11.5421C20.7911 11.5674 20.7914 11.5937 20.7861 11.6192C20.7808 11.6447 20.7701 11.6687 20.7546 11.6896C20.6867 11.7713 20.5934 11.8279 20.4897 11.8504C19.823 12.0628 19.0644 12.0945 18.5285 12.5453C18.4449 12.6294 18.3486 12.6999 18.2432 12.754C17.8751 12.9016 17.4785 12.4392 17.9148 12.2096C18.3127 12.057 18.7299 11.961 19.1543 11.9236Z" fill="white"/>
<path id="Path 33452" d="M31.1759 9.33401C31.7708 8.7402 32.4755 8.26814 33.2506 7.94425C33.859 7.64594 34.5515 7.56739 35.211 7.72188L35.4879 6.42985C35.5006 6.38773 35.503 6.34318 35.4948 6.29996C35.4699 6.23925 35.4226 6.19045 35.3628 6.16365C34.6804 5.76796 33.3088 6.12344 32.496 6.49219C30.7263 7.29161 29.193 8.5756 29.1537 10.3124C29.1537 10.3248 29.9187 10.5794 29.9805 10.5938C30.2005 10.6445 30.2812 10.6823 30.4084 10.5018C30.5164 10.3481 30.5465 10.1173 30.6577 9.95006C30.8093 9.72758 30.983 9.5209 31.1759 9.33318" fill="#DD4319"/>
</g>
</g>
<defs>
<clipPath id="clip0_6370_6266">
<rect width="48" height="48" fill="white"/>
</clipPath>
</defs>
</svg>
