<svg width="93" height="110" viewBox="0 0 93 110" fill="none" xmlns="http://www.w3.org/2000/svg">
<g id="Group_5800" clip-path="url(#clip0_6030_1665)">
<g id="Clip path group">
<mask id="mask0_6030_1665" style="mask-type:luminance" maskUnits="userSpaceOnUse" x="0" y="0" width="93" height="110">
<g id="clip-path">
<path id="Rectangle 1882" d="M93 0H0V110H93V0Z" fill="white"/>
</g>
</mask>
<g mask="url(#mask0_6030_1665)">
<g id="Group 5800">
<path id="Path 30169" d="M51.5829 57.599C52.5751 57.599 53.545 57.3032 54.3699 56.7489C55.1949 56.1946 55.8379 55.4068 56.2176 54.485C56.5973 53.5633 56.6966 52.549 56.503 51.5705C56.3095 50.592 55.8317 49.6932 55.1301 48.9877C54.4286 48.2822 53.5347 47.8018 52.5616 47.6072C51.5885 47.4125 50.5798 47.5124 49.6632 47.8942C48.7465 48.276 47.9631 48.9226 47.4118 49.7521C46.8606 50.5817 46.5664 51.5569 46.5664 52.5546C46.5664 53.8925 47.0949 55.1755 48.0357 56.1215C48.9765 57.0675 50.2525 57.599 51.5829 57.599Z" fill="#07122A"/>
<path id="Path 30170" d="M92.9998 44.1636V44.438C92.9934 49.7466 90.9677 54.8515 87.338 58.7062C83.7082 62.5609 78.7495 64.8733 73.4785 65.1693C71.8446 69.6471 69.1242 73.6436 65.5643 76.7959C66.447 78.1772 66.9232 79.7813 66.938 81.4231C66.9393 88.6972 64.1819 95.6979 59.2279 100.999C54.2739 106.299 47.4961 109.5 40.2761 109.95C39.7032 109.985 39.1316 110.002 38.5614 110.002C31.3947 110.001 24.5037 107.225 19.3191 102.25C16.4336 99.5081 14.1337 96.2042 12.5598 92.5394C10.9859 88.8747 10.1709 84.926 10.1646 80.9341C10.1674 78.7837 11.0168 76.7218 12.5271 75.1993C14.0374 73.6768 16.0857 72.8175 18.2242 72.8093L24.3219 72.7979C21.9845 69.7388 20.2885 66.2347 19.3363 62.4977C18.3842 58.7606 18.1957 54.8682 18.7823 51.0558C19.3689 47.2434 20.7184 43.5902 22.7492 40.3172C24.78 37.0443 27.4498 34.2195 30.5973 32.0137C33.7448 29.808 37.3044 28.2671 41.0611 27.4842C44.8177 26.7013 48.6932 26.6928 52.4532 27.459C56.2132 28.2253 59.7796 29.7505 62.9367 31.9423C66.0938 34.1342 68.7759 36.9471 70.821 40.2111H89.068C90.1113 40.2111 91.1118 40.6278 91.8495 41.3696C92.5872 42.1114 93.0016 43.1175 93.0016 44.1665M26.1206 55.4012C26.1234 59.0773 27.0946 62.687 28.9355 65.863C30.7764 69.039 33.4211 71.668 36.6006 73.4823C36.8171 73.6066 37.0357 73.7264 37.2562 73.8419C37.3969 73.9162 37.5375 73.9899 37.68 74.0606C38.0185 74.2284 38.36 74.3897 38.7069 74.5401L38.7992 74.5796C39.1711 74.7367 39.5472 74.8793 39.9275 75.0147C40.0216 75.0483 40.1158 75.0795 40.2106 75.1112C40.5407 75.2231 40.8735 75.3266 41.2089 75.4217C41.2822 75.4426 41.3549 75.4648 41.4282 75.4852C42.2513 75.7071 43.0873 75.8777 43.9314 75.9958C44.0297 76.0102 44.1292 76.0216 44.2294 76.0336C44.5554 76.0755 44.885 76.1079 45.2116 76.1336C45.3218 76.142 45.4315 76.1516 45.5429 76.1588C45.9601 76.1852 46.3833 76.2014 46.8065 76.2014C47.2296 76.2014 47.645 76.1852 48.0628 76.1594C48.1713 76.1528 48.2786 76.1426 48.387 76.1342C48.7156 76.1095 49.0432 76.0767 49.3698 76.036C49.4652 76.024 49.5606 76.0126 49.6559 75.9994C50.5023 75.8814 51.3407 75.711 52.1663 75.4894L52.3087 75.448C52.6663 75.3479 53.0239 75.2377 53.3815 75.119C53.462 75.0914 53.5424 75.0651 53.6199 75.0369C53.9906 74.9069 54.3589 74.7672 54.7225 74.6174C54.7487 74.6066 54.7755 74.597 54.8024 74.5856C55.176 74.428 55.5444 74.256 55.9091 74.0756C56.0283 74.0157 56.141 73.9558 56.2566 73.8958C56.5029 73.7676 56.7469 73.6347 56.9885 73.4973C59.472 72.0799 61.6378 70.1623 63.3504 67.8645C65.0631 65.5667 66.2856 62.9382 66.9416 60.1435C67.0108 59.8438 67.0745 59.5442 67.1306 59.2445C67.1484 59.1475 67.1657 59.0504 67.1824 58.9533C67.2325 58.6596 67.2766 58.3642 67.3147 58.0687C67.3272 57.9668 67.3415 57.8655 67.3529 57.7637C67.3868 57.464 67.4125 57.1643 67.4333 56.8647C67.4399 56.7688 67.4494 56.6729 67.4548 56.5764C67.4768 56.1851 67.4899 55.7937 67.4899 55.4024C67.4899 55.011 67.478 54.6353 67.4572 54.2547C67.4488 54.0977 67.4339 53.9419 67.4214 53.7854C67.4053 53.5691 67.3886 53.3515 67.3648 53.1364C67.3433 52.941 67.3171 52.7474 67.2909 52.5527C67.2676 52.3819 67.2432 52.2105 67.2158 52.0415C67.1816 51.8289 67.1441 51.6177 67.1031 51.408C67.0745 51.2588 67.0435 51.1083 67.0108 50.9615C66.9631 50.7434 66.9148 50.5264 66.8612 50.3113C66.8248 50.1674 66.7843 50.0254 66.7449 49.8828C66.6853 49.6694 66.6293 49.4566 66.5661 49.2469C66.4946 49.0162 66.4154 48.7884 66.3355 48.5595C66.2556 48.3305 66.1746 48.11 66.0888 47.8883C66.0029 47.6665 65.91 47.4268 65.811 47.199C65.7556 47.0684 65.6948 46.9402 65.6358 46.8107C65.5363 46.5908 65.4338 46.3714 65.3259 46.1515C63.252 41.9505 59.8268 38.5779 55.6064 36.5812C51.3861 34.5844 46.6185 34.0808 42.0776 35.1521C37.5368 36.2235 33.4894 38.8068 30.5927 42.4827C27.6959 46.1586 26.1199 50.7111 26.1206 55.4012ZM59.1138 81.1199C58.6672 81.3372 58.2136 81.5424 57.7531 81.7354C57.6619 81.7737 57.5702 81.8073 57.479 81.8444C57.094 82.0021 56.7042 82.1537 56.3114 82.2945C56.2041 82.3329 56.0963 82.3676 55.9878 82.4042C55.6068 82.5357 55.2225 82.6593 54.8351 82.7752C54.7237 82.8081 54.6116 82.8393 54.4996 82.8711C54.1138 82.9805 53.7252 83.082 53.3338 83.1755C53.2194 83.2025 53.1044 83.2301 52.9887 83.2558C52.6001 83.3429 52.209 83.4216 51.8152 83.492C51.696 83.5135 51.5768 83.5363 51.4576 83.5567C51.0696 83.6214 50.6781 83.6765 50.2847 83.7239C50.1595 83.7395 50.035 83.758 49.9098 83.7724C49.5135 83.8156 49.1148 83.8473 48.7142 83.8743C48.595 83.8833 48.4758 83.8953 48.3566 83.9019C47.8435 83.93 47.3274 83.9462 46.8071 83.9462C46.2558 83.9462 45.7086 83.9258 45.1651 83.8947C45.0191 83.8857 44.873 83.8719 44.727 83.8611C44.3158 83.8306 43.9063 83.7934 43.4999 83.7461C43.3503 83.7287 43.2019 83.7089 43.0517 83.6861C42.6269 83.6294 42.2052 83.5631 41.7864 83.4872C41.6702 83.4662 41.5533 83.4476 41.4371 83.4272C40.3479 83.2179 39.272 82.9437 38.2152 82.6062C38.1442 82.5834 38.0745 82.557 38.003 82.5343C37.5711 82.392 37.1438 82.24 36.721 82.0782C36.5601 82.0182 36.4003 81.9523 36.24 81.887C35.9106 81.7536 35.5844 81.6137 35.2614 81.4675C35.0731 81.383 34.8841 81.2997 34.697 81.2104C34.399 81.0671 34.101 80.9161 33.809 80.7633C33.6522 80.6824 33.4907 80.6099 33.3351 80.5236L18.2427 80.5523C18.1433 80.5533 18.0483 80.5937 17.9784 80.6648C17.9086 80.7358 17.8694 80.8318 17.8696 80.9317C17.8745 83.8677 18.4742 86.7719 19.6321 89.4672C20.79 92.1625 22.4818 94.5923 24.6044 96.6084C26.6196 98.5462 29.0113 100.044 31.6295 101.009C34.2476 101.974 37.0357 102.384 39.819 102.214C45.0752 101.887 50.0099 99.5582 53.6181 95.701C57.2264 91.8438 59.2369 86.7486 59.2402 81.4531C59.2396 81.3295 59.2147 81.2073 59.1668 81.0935L59.1186 81.1151M84.8209 47.9518H74.217C74.2372 48.0273 74.2503 48.104 74.2706 48.1795C74.3832 48.614 74.4846 49.0527 74.5781 49.4938C74.6377 49.7683 74.6842 50.0452 74.7331 50.3208C74.7927 50.6499 74.8493 50.9801 74.897 51.3133C74.9304 51.5488 74.9566 51.7856 74.987 52.0229C75.0293 52.3783 75.0633 52.7361 75.0919 53.0956C75.108 53.2958 75.1259 53.4954 75.1378 53.695C75.1712 54.2577 75.1926 54.824 75.1926 55.3952C75.1926 55.9478 75.1729 56.4949 75.1425 57.0391C75.1425 57.0751 75.1425 57.1104 75.139 57.1464C77.4271 56.6341 79.5348 55.5089 81.2387 53.89C82.9426 52.2711 84.1792 50.2188 84.8174 47.9506" fill="#07122A"/>
<path id="Path 30171" d="M10.019 30.7773C13.7106 28.5773 11.6478 24.3306 11.2545 23.5964C11.2437 23.5754 11.264 23.5569 11.2807 23.5719C12.5216 24.7431 14.1153 25.465 15.8099 25.6236C17.5045 25.7822 19.2033 25.3683 20.6378 24.4474C25.1639 21.7506 23.5654 16.3442 22.9122 14.6278C22.9036 14.6094 22.9021 14.5885 22.908 14.5691C22.9139 14.5497 22.9268 14.5332 22.9442 14.5229C22.9615 14.5125 22.9821 14.5091 23.0019 14.5132C23.0216 14.5173 23.0392 14.5287 23.051 14.5451C24.2353 15.9463 28.1838 19.9514 32.7098 17.2533C34.2019 16.43 35.3786 15.13 36.0538 13.559C36.7291 11.9879 36.8644 10.2354 36.4383 8.57836C36.433 8.55619 36.4592 8.5472 36.4717 8.56698C36.9235 9.26637 39.6382 13.1217 43.3298 10.9247C47.3791 8.51124 46.1507 4.67627 46.1507 4.67627L51.0832 21.4497L33.2813 32.0575L15.4789 42.6652L3.21387 30.2667C3.21387 30.2667 5.96976 33.1908 10.019 30.7773Z" fill="#FDBD10"/>
<path id="Rectangle 1877" d="M15.4789 42.6704L18.9258 48.5151L54.5193 27.2901L51.0724 21.4454L15.4789 42.6704Z" fill="#FDBB11"/>
<path id="Rectangle 1878" d="M15.4789 42.6691L16.7734 44.8643L52.3675 23.6389L51.0729 21.4438L15.4789 42.6691Z" fill="#FBED1D"/>
<path id="Rectangle 1879" d="M15.4789 42.6691L16.7734 44.8643L52.3675 23.6389L51.0729 21.4438L15.4789 42.6691Z" fill="#FBED1D"/>
<path id="Rectangle 1880" d="M15.4784 42.6704L18.9253 48.5151L36.7223 37.9025L33.2754 32.0578L15.4784 42.6704Z" fill="#F68D1E"/>
<path id="Rectangle 1881" d="M15.4789 42.6691L16.7734 44.8643L34.5705 34.2516L33.2759 32.0565L15.4789 42.6691Z" fill="#FDBB11"/>
<path id="Path 30173" d="M15.4788 42.6683L3.24121 30.2938C3.53325 30.5833 6.20034 33.0506 10.0189 30.7769C13.7105 28.5768 11.6478 24.3301 11.2544 23.5959C11.2437 23.5756 11.2639 23.5564 11.2806 23.5714C12.5215 24.7427 14.1151 25.4647 15.8097 25.6234C17.5043 25.7821 19.2032 25.3683 20.6378 24.4476C25.1638 21.7507 23.5653 16.3437 22.9121 14.6267C22.9034 14.6082 22.9018 14.5871 22.9075 14.5675C22.9132 14.5478 22.9259 14.5309 22.9431 14.52L33.2801 32.0576L15.4788 42.6683Z" fill="#F68D1E"/>
<path id="Path 30174" d="M20.0562 9.62061L24.0201 12.4224L23.2501 15.0372L20.5967 14.4606L20.0562 9.62061Z" fill="#FDBB11"/>
<path id="Path 30175" d="M20.5972 14.4625L20.0566 9.62012L23.2506 15.0373L20.5972 14.4625Z" fill="#F68D1E"/>
<path id="Path 30176" d="M8.36768 18.5864L12.3317 21.3882L11.5616 24.0054L8.90824 23.4288L8.36768 18.5864Z" fill="#FDBB11"/>
<path id="Path 30177" d="M8.90776 23.4288L8.36719 18.5864L11.5611 24.0054L8.90776 23.4288Z" fill="#F68D1E"/>
<path id="Path 30178" d="M33.4907 3.61426L37.4547 6.41602L36.6841 9.0332L34.0307 8.45667L33.4907 3.61426Z" fill="#FDBB11"/>
<path id="Path 30179" d="M34.0298 8.45618L33.4893 3.61377L36.6832 9.03331L34.0298 8.45618Z" fill="#F68D1E"/>
<path id="Path 30180" d="M0 26.4326L4.35077 28.3558L4.12608 31.1372L1.46913 31.145L0 26.4326Z" fill="#FDBB11"/>
<path id="Path 30181" d="M1.46815 31.1455L-0.000976562 26.4331L4.12571 31.1377L1.46815 31.1455Z" fill="#F68D1E"/>
<path id="Path 30182" d="M44.3517 0L43.9404 4.7615L46.4752 5.90019L47.7578 3.56289L44.3517 0Z" fill="#FDBB11"/>
<path id="Path 30183" d="M44.3516 0L46.4728 5.89839L43.938 4.7597L44.3516 0Z" fill="#F68D1E"/>
<path id="Path 30184" d="M27.1693 28.0673C28.5485 30.4046 30.9122 31.5618 32.4487 30.6443C33.9852 29.7268 34.1133 27.0892 32.7336 24.7495C31.3538 22.4098 28.9907 21.2549 27.4536 22.1725C25.9165 23.09 25.789 25.7276 27.1687 28.0679" fill="#BC202E"/>
<path id="Path 30185" d="M27.4542 22.1719L32.4486 30.6455C30.9115 31.5618 28.5484 30.4058 27.1693 28.0685C25.7901 25.7312 25.9177 23.0894 27.4542 22.1731" fill="#951F2D"/>
<path id="Path 30186" d="M16.9257 34.6018C17.6844 35.8891 18.9843 36.5238 19.8294 36.0197C20.6745 35.5157 20.7448 34.0648 19.9861 32.7775C19.2274 31.4902 17.9282 30.8555 17.0824 31.3595C16.2367 31.8635 16.167 33.3145 16.9257 34.6018Z" fill="#BC202E"/>
<path id="Path 30187" d="M17.0823 31.3594L19.8293 36.0202C18.9842 36.5236 17.6837 35.8889 16.925 34.6016C16.1663 33.3143 16.2372 31.8634 17.0823 31.3594Z" fill="#951F2D"/>
<path id="Path 30188" d="M40.289 20.676C41.0477 21.9633 42.3476 22.598 43.1927 22.094C44.0378 21.5899 44.1081 20.139 43.3494 18.8517C42.5907 17.5644 41.2914 16.9297 40.4457 17.4337C39.6 17.9378 39.5303 19.3887 40.289 20.676Z" fill="#BC202E"/>
<path id="Path 30189" d="M40.4495 17.4331L43.1965 22.0939C42.3514 22.5973 41.0509 21.9627 40.2922 20.6754C39.5335 19.388 39.6044 17.9371 40.4495 17.4331Z" fill="#951F2D"/>
<path id="Path 30190" d="M29.9147 22.8745C29.9914 23.0066 30.031 23.1572 30.0291 23.3102C29.9577 23.4453 29.851 23.5583 29.7204 23.6368C29.5921 23.714 29.4458 23.7555 29.2963 23.7569C29.1469 23.7584 28.9998 23.7198 28.8701 23.6451C28.7404 23.5703 28.6329 23.4622 28.5586 23.3318C28.4843 23.2015 28.4459 23.0535 28.4473 22.9032C28.5176 22.7705 28.622 22.659 28.7494 22.5804C28.8769 22.5017 29.023 22.4587 29.1726 22.4557C29.3221 22.4528 29.4698 22.4901 29.6002 22.5637C29.7307 22.6373 29.8392 22.7446 29.9147 22.8745Z" fill="white"/>
<path id="Path 30191" d="M18.5397 31.8036C18.582 31.8763 18.6039 31.9591 18.6029 32.0433C18.5643 32.1159 18.5072 32.1768 18.4374 32.2197C18.3677 32.2627 18.2878 32.2862 18.206 32.2877C18.1242 32.2893 18.0435 32.269 17.9721 32.2288C17.9008 32.1885 17.8414 32.1299 17.8 32.0589C17.7574 31.9864 17.7355 31.9034 17.7369 31.8192C17.7754 31.7467 17.8325 31.6858 17.9023 31.6428C17.9721 31.5999 18.052 31.5764 18.1337 31.5748C18.2155 31.5732 18.2962 31.5936 18.3676 31.6338C18.439 31.674 18.4984 31.7326 18.5397 31.8036Z" fill="white"/>
<path id="Path 30192" d="M41.9069 17.8783C41.9492 17.951 41.9711 18.0338 41.97 18.118C41.9315 18.1906 41.8744 18.2515 41.8046 18.2944C41.7349 18.3374 41.655 18.3609 41.5732 18.3624C41.4914 18.364 41.4107 18.3437 41.3393 18.3035C41.268 18.2632 41.2086 18.2046 41.1672 18.1336C41.1246 18.0611 41.1027 17.9781 41.1041 17.8939C41.143 17.8195 41.2016 17.7573 41.2733 17.7141C41.3256 17.6829 41.3835 17.6624 41.4436 17.6537C41.5038 17.645 41.5651 17.6483 41.624 17.6634C41.6829 17.6786 41.7383 17.7052 41.7869 17.7419C41.8355 17.7786 41.8765 17.8245 41.9075 17.8771" fill="white"/>
</g>
</g>
</g>
</g>
<defs>
<clipPath id="clip0_6030_1665">
<rect width="93" height="110" fill="white"/>
</clipPath>
</defs>
</svg>
