<svg width="34" height="20" viewBox="0 0 34 20" fill="none" xmlns="http://www.w3.org/2000/svg">
<g id="Group 5885">
<path id="Path 35468" d="M16.2923 7.83203C16.0126 7.83203 15.7393 7.91495 15.5068 8.07031C15.2743 8.22567 15.0931 8.44648 14.986 8.70483C14.879 8.96318 14.851 9.24746 14.9056 9.52172C14.9601 9.79599 15.0948 10.0479 15.2925 10.2456C15.4903 10.4434 15.7422 10.578 16.0165 10.6326C16.2907 10.6871 16.575 10.6591 16.8333 10.5521C17.0917 10.4451 17.3125 10.2639 17.4679 10.0314C17.6232 9.79889 17.7061 9.52553 17.7061 9.24589C17.7061 9.06022 17.6696 8.87637 17.5985 8.70483C17.5275 8.53329 17.4233 8.37743 17.292 8.24614C17.1607 8.11485 17.0049 8.0107 16.8333 7.93965C16.6618 7.8686 16.478 7.83203 16.2923 7.83203Z" fill="#07122A"/>
<path id="Path 35469" d="M26.9114 5.74284H21.7686C20.7929 4.19633 19.3194 3.02842 17.591 2.43162C17.56 2.42103 17.529 2.41059 17.4978 2.40031C17.4246 2.37615 17.3509 2.35279 17.2768 2.33071C17.2007 2.30815 17.1243 2.28626 17.0473 2.26591C16.9953 2.25214 16.9429 2.23954 16.8905 2.2268C16.8262 2.21117 16.7617 2.19633 16.6969 2.18229C16.6539 2.17299 16.6112 2.16316 16.568 2.15452C16.4659 2.13422 16.3631 2.11596 16.2596 2.09974C16.222 2.09378 16.1843 2.08843 16.1466 2.08297C16.0515 2.06932 15.956 2.05703 15.8599 2.04675C15.8398 2.0446 15.8199 2.04183 15.7997 2.03983C15.6845 2.02837 15.5684 2.02001 15.4518 2.01351C15.4221 2.01185 15.3924 2.01046 15.3626 2.0091C15.2424 2.00374 15.1216 2 15 2C14.9784 2 14.9571 2.00146 14.9356 2.00163C10.9669 2.03333 7.67717 4.96782 7.09206 8.78258C7.03065 9.18548 6.99988 9.59245 7 10C7 10.1316 7.00363 10.2624 7.00992 10.3925C7.01119 10.4186 7.01336 10.4445 7.01488 10.4705C7.02061 10.5703 7.02816 10.6696 7.03754 10.7685C7.0414 10.8087 7.04585 10.8488 7.05031 10.8889C7.05955 10.9722 7.07008 11.0552 7.08192 11.1377C7.08862 11.1844 7.09526 11.2311 7.10277 11.2776C7.11456 11.3511 7.12813 11.424 7.14192 11.4969C7.15182 11.5488 7.1609 11.6008 7.17179 11.6524C7.18399 11.7103 7.19824 11.7676 7.21169 11.8252C7.24819 11.9811 7.28824 12.1357 7.33385 12.288C7.3361 12.2956 7.33814 12.3033 7.34029 12.3109C7.36879 12.405 7.39945 12.4981 7.43128 12.5907C7.43587 12.6042 7.44025 12.6177 7.44491 12.631C7.47904 12.7285 7.51492 12.8252 7.55256 12.9209C7.55342 12.9231 7.55432 12.9253 7.55518 12.9276C7.83144 13.6258 8.20443 14.2817 8.66321 14.8761H8.65991C9.34631 15.7683 10.2125 16.5063 11.2024 17.0422H11.2061C11.2731 17.0785 11.3407 17.1138 11.4089 17.148C11.4138 17.1505 11.4186 17.153 11.4234 17.1555C11.4913 17.1895 11.5597 17.2227 11.6288 17.2548C11.6487 17.2641 11.669 17.2729 11.6891 17.2821C11.7942 17.3301 11.9006 17.3758 12.0082 17.4193C12.0548 17.4381 12.1015 17.4567 12.1485 17.4746C12.1989 17.494 12.2493 17.5133 12.3002 17.5316C12.3902 17.5638 12.4809 17.5945 12.5724 17.6237C12.6108 17.636 12.6495 17.6475 12.6882 17.6592C12.7796 17.6868 12.8714 17.7133 12.9642 17.7376C12.9795 17.7416 12.9946 17.7462 13.0099 17.7501C13.1237 17.7792 13.2387 17.8054 13.3544 17.8295C13.3745 17.8338 13.3946 17.838 13.4147 17.842C13.536 17.8664 13.6581 17.8887 13.7813 17.9075L13.7831 17.9078C14.6543 18.0404 15.5413 18.0296 16.4091 17.8758C16.4194 17.874 16.4297 17.872 16.44 17.8701C16.5148 17.8565 16.5893 17.8418 16.6633 17.826C16.6818 17.8221 16.7002 17.8183 16.7186 17.8142C16.7895 17.7987 16.86 17.7822 16.93 17.7647C16.9455 17.7608 16.961 17.7574 16.9764 17.7534C17.0554 17.7334 17.1339 17.7121 17.212 17.6895C17.2471 17.6793 17.282 17.6684 17.317 17.6578C17.3587 17.6452 17.4003 17.6324 17.4418 17.6191C17.4861 17.6049 17.5303 17.5902 17.5743 17.5752C17.6034 17.5653 17.6324 17.5552 17.6613 17.5449C17.712 17.527 17.7626 17.5089 17.8129 17.49C17.8222 17.4865 17.8314 17.4827 17.8408 17.4793C18.0353 17.4051 18.2261 17.3238 18.4133 17.2353L18.4142 17.2349C19.0943 16.9132 19.7256 16.4972 20.2896 15.9993C20.2891 15.9985 20.2886 15.9976 20.2881 15.9968C21.2903 15.112 22.0559 13.991 22.5153 12.7356C25.5778 12.5708 28.0194 10.0306 28.0194 6.92784V6.85088C28.0194 6.55701 27.9027 6.27518 27.6949 6.06738C27.4871 5.85958 27.2052 5.74284 26.9114 5.74284ZM15 15.8301C11.7855 15.8301 9.17042 13.2149 9.17042 10.0004C9.17042 6.78592 11.7856 4.17098 15 4.17098C18.2145 4.17098 20.8295 6.78609 20.8295 10.0005C20.8295 13.2148 18.2144 15.8301 15 15.8301M25.7558 8.2834C25.2973 9.3498 24.1424 10.2365 22.9854 10.4913H22.9844C22.9944 10.3288 23.0005 10.1654 23.0005 10.0005C23.0005 9.29612 22.9071 8.59486 22.723 7.91498L22.726 7.91386L25.4599 7.83269C25.5133 7.8328 25.5659 7.84617 25.6129 7.8716C25.6599 7.89703 25.6998 7.93373 25.7292 7.9784C25.7585 8.02307 25.7763 8.07433 25.7809 8.12757C25.7856 8.18081 25.7769 8.23437 25.7558 8.28345" fill="#07122A"/>
<path id="Path 35463" d="M3.36199 3.25C3.42815 3.44189 3.48019 3.58854 3.5295 3.73621C3.63611 4.05582 3.7402 4.37626 3.84724 4.69567C3.94658 5.01714 4.12597 5.30958 4.36938 5.54685C4.61279 5.78412 4.91263 5.95883 5.2421 6.05537C5.67299 6.19481 6.10598 6.32747 6.53835 6.46362C6.5866 6.47884 6.6338 6.49818 6.72798 6.53252C6.39086 6.63989 6.09334 6.72462 5.80405 6.82869C5.4278 6.9461 5.06095 7.09046 4.70649 7.2606C4.29057 7.49894 3.98562 7.88552 3.85588 8.33894C3.70839 8.77456 3.56637 9.2112 3.4212 9.64722C3.4075 9.68836 3.38875 9.72743 3.35546 9.80909C3.31606 9.69535 3.2893 9.62069 3.26422 9.54562C3.12158 9.11947 2.99031 8.68961 2.8346 8.26819C2.73029 7.97234 2.55588 7.70472 2.32558 7.4871C2.09528 7.26948 1.81558 7.10802 1.50927 7.01585C1.02065 6.85337 0.527813 6.70323 0 6.53582C0.107459 6.49571 0.181205 6.46465 0.257269 6.44038C0.664138 6.31143 1.07269 6.18741 1.47935 6.05578C1.80863 5.95846 2.10818 5.78322 2.35134 5.54565C2.59451 5.30808 2.77376 5.01553 2.87316 4.69402C3.01517 4.27322 3.15318 3.85077 3.29351 3.42955C3.30889 3.38389 3.32828 3.33947 3.36262 3.25082" fill="black"/>
<path id="Path 35470" d="M28.1954 16.9306C28.1812 16.7282 28.1689 16.573 28.1595 16.4176C28.1392 16.0813 28.1216 15.7449 28.1009 15.4086C28.0881 15.0724 27.9905 14.7435 27.8168 14.4513C27.6431 14.1591 27.3987 13.9128 27.1055 13.7343C26.7254 13.488 26.3415 13.2478 25.9591 13.0044C25.9164 12.9772 25.8758 12.9463 25.7937 12.8888C26.1471 12.8723 26.4565 12.8675 26.7628 12.8418C27.1566 12.8258 27.5484 12.7813 27.9348 12.7087C28.3982 12.5861 28.7928 12.2917 29.0355 11.8873C29.2907 11.5047 29.5409 11.1197 29.794 10.7361C29.8178 10.6999 29.8461 10.667 29.8994 10.5967C29.908 10.7168 29.9145 10.7958 29.9193 10.8748C29.9468 11.3234 29.9623 11.7726 30.0037 12.2199C30.0279 12.5327 30.127 12.8363 30.2932 13.1062C30.4593 13.376 30.6877 13.6043 30.9597 13.7726C31.3896 14.056 31.8268 14.3286 32.2933 14.6269C32.1791 14.6379 32.0999 14.6488 32.0201 14.6525C31.5937 14.6718 31.167 14.6858 30.7401 14.7077C30.3969 14.7165 30.0622 14.8082 29.7658 14.9748C29.4694 15.1413 29.2206 15.3775 29.0414 15.6623C28.7953 16.032 28.5526 16.4044 28.3081 16.7749C28.2814 16.815 28.2512 16.8529 28.195 16.9297" fill="black"/>
<path id="Path 35464" d="M10.0421 2.02484C9.7855 2.10711 9.53013 2.19185 9.27181 2.26795C9.03573 2.32866 8.81991 2.44831 8.64557 2.61513C8.47123 2.78195 8.34438 2.9902 8.2775 3.21938C8.1966 3.48574 8.09699 3.74632 7.97935 3.99929C7.93721 3.87836 7.89338 3.75783 7.85293 3.63649C7.82027 3.53982 7.78677 3.44315 7.76064 3.34484C7.69929 3.06861 7.55684 2.81579 7.35071 2.61728C7.14457 2.41877 6.88367 2.28316 6.59987 2.22702C6.42309 2.18403 6.25158 2.12048 6.07838 2.06433C6.0375 2.05096 5.99958 2.02978 5.91846 1.99358C6.21745 1.89774 6.47113 1.81115 6.72798 1.73525C6.96886 1.6718 7.18827 1.54729 7.36393 1.37434C7.53959 1.20139 7.66526 0.986164 7.72819 0.750497C7.80466 0.494366 7.89892 0.24362 8.01032 0C8.02992 0.0493613 8.05246 0.0978999 8.06911 0.14829C8.13864 0.35643 8.20965 0.564158 8.27497 0.773532C8.33758 0.99857 8.45841 1.20412 8.62585 1.37044C8.79329 1.53677 9.00173 1.65828 9.23114 1.72333C9.46994 1.7986 9.70817 1.87401 9.94585 1.94956C9.97851 1.96005 10.0091 1.97445 10.0417 1.987C10.0417 1.99975 10.0417 2.0125 10.0417 2.02525" fill="black"/>
<path id="Path 35471" d="M21.4257 16.387C21.6948 16.374 21.9634 16.3582 22.2327 16.3516C22.4764 16.354 22.7158 16.2943 22.9274 16.1783C23.139 16.0623 23.3154 15.894 23.4393 15.6899C23.5864 15.4536 23.7501 15.2276 23.9292 15.0137C23.9386 15.1415 23.9497 15.2692 23.9574 15.3969C23.9639 15.4987 23.9713 15.6008 23.9711 15.7025C23.9588 15.9852 24.031 16.2663 24.1787 16.5114C24.3265 16.7565 24.5434 16.955 24.803 17.0827C24.9626 17.1699 25.1118 17.2757 25.2646 17.3748C25.3006 17.3983 25.3318 17.4285 25.4007 17.4845C25.0871 17.4997 24.8197 17.5177 24.5519 17.5245C24.3028 17.5235 24.0587 17.5869 23.8443 17.7085C23.6298 17.8301 23.4527 18.0055 23.3309 18.2168C23.1908 18.4444 23.0348 18.6623 22.8642 18.8687C22.858 18.816 22.8488 18.7633 22.8458 18.7103C22.8325 18.4912 22.8177 18.2722 22.8088 18.0531C22.8065 17.8195 22.743 17.5897 22.6243 17.3857C22.5056 17.1817 22.3358 17.0104 22.131 16.8882C21.9198 16.7536 21.7092 16.6191 21.4992 16.4847C21.4704 16.4661 21.4446 16.4443 21.4163 16.4237C21.4196 16.4114 21.4229 16.3991 21.4262 16.3867" fill="black"/>
</g>
</svg>
