<svg xmlns="http://www.w3.org/2000/svg" viewBox="0 0 60.39 60.29"><defs><style>.cls-1{fill:#163b64;}</style></defs><g id="Layer_2" data-name="Layer 2"><g id="Layer_1-2" data-name="Layer 1"><g id="blue_duck" data-name="blue duck"><path id="duck" class="cls-1" d="M6.67,54.67A21.33,21.33,0,0,1,0,39.21a5.91,5.91,0,0,1,5.88-5.89h4.44A20.68,20.68,0,1,1,43.08,8.06a18.31,18.31,0,0,1,1.14,1.63h13.3a2.87,2.87,0,0,1,2.87,2.86v.2a15.07,15.07,0,0,1-14.24,15,20.72,20.72,0,0,1-5.76,8.43,6.38,6.38,0,0,1,1,3.36A20.72,20.72,0,0,1,22,60.25c-.42,0-.84,0-1.25,0A20.36,20.36,0,0,1,6.67,54.67Zm0-15.73A1.07,1.07,0,0,0,5.64,40v.06a15.65,15.65,0,0,0,4.88,10.51,14.75,14.75,0,0,0,11.09,4.06,15.08,15.08,0,0,0,14.16-15c0-.06,0-.18-.07-.21a.32.32,0,0,0-.16,0,20.68,20.68,0,0,1-18.64-.5ZM11.63,20.7A15.08,15.08,0,1,0,26.71,5.62h0A15.12,15.12,0,0,0,11.63,20.7ZM46.7,15.3h0a20.49,20.49,0,0,1,.72,5.4c0,.42,0,.85,0,1.27h0a10.63,10.63,0,0,0,7.16-5.72.82.82,0,0,0-.43-1.09.78.78,0,0,0-.33-.07ZM26.4,18.74a3.66,3.66,0,1,1,3.66,3.66h0a3.65,3.65,0,0,1-3.65-3.65Z"/></g></g></g></svg>