<svg width="24" height="24" viewBox="0 0 24 24" fill="none" xmlns="http://www.w3.org/2000/svg">
<path d="M23 1.73333V22.2667C23 22.6717 22.6717 23 22.2667 23H1.73333C1.32833 23 1 22.6717 1 22.2667V1.73333C1 1.32833 1.32833 1 1.73333 1H22.2667C22.6717 1 23 1.32833 23 1.73333Z" stroke="#8698A8" stroke-width="2" stroke-linecap="round" stroke-linejoin="round"/>
<path d="M1 16.8893L9.55556 13.2227L23 19.3338" stroke="#8698A8" stroke-width="2" stroke-linecap="round" stroke-linejoin="round"/>
<path d="M16.8888 9.5549C15.5387 9.5549 14.4443 8.46049 14.4443 7.11046C14.4443 5.76043 15.5387 4.66602 16.8888 4.66602C18.2388 4.66602 19.3332 5.76043 19.3332 7.11046C19.3332 8.46049 18.2388 9.5549 16.8888 9.5549Z" stroke="#8698A8" stroke-width="2" stroke-linecap="round" stroke-linejoin="round"/>
</svg>
