<svg width="31" height="34" viewBox="0 0 31 34" fill="none" xmlns="http://www.w3.org/2000/svg">
<g id="&#240;&#159;&#166;&#134; icon &#34;multiple pages&#34;">
<path id="Vector" d="M9.22656 24.9062H15.5499H21.8732" stroke="#377DFF" stroke-width="2.71" stroke-linecap="round" stroke-linejoin="round"/>
<path id="Vector_2" d="M9.22656 17.6797H10.1299H11.0332" stroke="#377DFF" stroke-width="2.71" stroke-linecap="round" stroke-linejoin="round"/>
<path id="Vector_3" d="M9.22656 10.4531H11.9366H14.6466" stroke="#377DFF" stroke-width="2.71" stroke-linecap="round" stroke-linejoin="round"/>
<path id="Vector_4" d="M2 29.4233V4.12992C2 2.63322 3.2133 1.41992 4.71 1.41992H22.3277C22.6152 1.41992 22.8908 1.53412 23.0941 1.73743L28.7826 7.42575C28.9858 7.62906 29.1 7.90477 29.1 8.19227V29.4233C29.1 30.9199 27.8866 32.1333 26.39 32.1333H4.71C3.2133 32.1333 2 30.9199 2 29.4233Z" stroke="#377DFF" stroke-width="2.71" stroke-linecap="round" stroke-linejoin="round"/>
<path id="Vector_5" d="M21.8735 1.41992V7.56259C21.8735 8.16126 22.3588 8.64659 22.9575 8.64659H29.1002" stroke="#377DFF" stroke-width="2.71" stroke-linecap="round" stroke-linejoin="round"/>
</g>
</svg>
