<svg width="32" height="22" viewBox="0 0 32 22" fill="none" xmlns="http://www.w3.org/2000/svg">
<g id="Group 5877">
<path id="Path 35459" d="M14.4032 15.9164C14.4032 18.7237 11.4029 20.9998 7.70177 20.9998C4.00065 20.9998 1 18.7237 1 15.9164C1 13.1091 4.00033 10.833 7.70177 10.833C11.4032 10.833 14.4032 13.1088 14.4032 15.9164Z" stroke="#8698A8" stroke-width="2" stroke-linecap="round" stroke-linejoin="round"/>
<path id="Path 35460" d="M13.9858 10.1592C14.0999 12.5852 14.2546 14.3893 14.2831 14.956" stroke="#8698A8" stroke-width="2" stroke-linecap="round" stroke-linejoin="round"/>
<path id="Path 35461" d="M2 12.9991C2.45424 11.743 4.33107 6.83646 4.8958 5.17818C5.22481 4.06892 5.7772 3.07824 6.50223 2.29714C7.36565 1.49455 8.41364 1.04189 9.49895 1.00277C10.5843 0.963643 11.6524 1.34002 12.5532 2.07901C12.97 2.42267 13.3158 2.87936 13.5636 3.41326C13.8438 4.11483 13.9925 4.88357 13.9991 5.66384" stroke="#8698A8" stroke-width="2" stroke-linecap="round" stroke-linejoin="round"/>
<path id="Path 35464" d="M17.5845 15.9164C17.5845 18.7237 20.5848 20.9998 24.2859 20.9998C27.9871 20.9998 30.9877 18.7237 30.9877 15.9164C30.9877 13.1091 27.9874 10.833 24.2859 10.833C20.5845 10.833 17.5845 13.1088 17.5845 15.9164Z" stroke="#8698A8" stroke-width="2" stroke-linecap="round" stroke-linejoin="round"/>
<path id="Path 35465" d="M17.9117 10.2217C17.8185 12.3225 17.7257 14.5304 17.7041 14.957" stroke="#8698A8" stroke-width="2" stroke-linecap="round" stroke-linejoin="round"/>
<path id="Path 35466" d="M29.9981 12.9991C29.5438 11.743 27.6653 6.83646 27.102 5.17818C26.773 4.06892 26.2205 3.07824 25.4954 2.29714C24.6319 1.49455 23.5838 1.04189 22.4984 1.00277C21.413 0.963643 20.3448 1.34002 19.4438 2.07901C19.027 2.42267 18.6811 2.87936 18.4334 3.41326C18.1537 4.11461 18.0053 4.88294 17.999 5.66271" stroke="#8698A8" stroke-width="2" stroke-linecap="round" stroke-linejoin="round"/>
<path id="Path 35469" d="M18.3685 6.90186H13.6195L13.0918 9.19727H18.8963L18.3685 6.90186Z" stroke="#8698A8" stroke-width="2" stroke-linecap="round" stroke-linejoin="round"/>
</g>
</svg>
