<svg width="22" height="22" viewBox="0 0 22 22" fill="none" xmlns="http://www.w3.org/2000/svg">
<g id="&#240;&#159;&#166;&#134; icon &#34;profile circled&#34;">
<path id="Vector" d="M11 1C5.47715 1 1 5.47715 1 11C1 16.5228 5.47715 21 11 21C16.5228 21 21 16.5228 21 11C21 5.47715 16.5228 1 11 1Z" stroke="#07122A" stroke-width="2" stroke-linecap="round" stroke-linejoin="round"/>
<path id="Vector_2" d="M3.271 17.3447C3.271 17.3447 5.50002 14.499 11 14.499C16.5 14.499 18.7291 17.3447 18.7291 17.3447" stroke="#07122A" stroke-width="2" stroke-linecap="round" stroke-linejoin="round"/>
<path id="Vector_3" d="M10.9995 11.001C12.6564 11.001 13.9995 9.65788 13.9995 8.00098C13.9995 6.34413 12.6564 5.00098 10.9995 5.00098C9.34261 5.00098 7.99951 6.34413 7.99951 8.00098C7.99951 9.65788 9.34261 11.001 10.9995 11.001Z" stroke="#07122A" stroke-width="2" stroke-linecap="round" stroke-linejoin="round"/>
</g>
</svg>
