<svg width="21" height="21" viewBox="0 0 21 21" fill="none" xmlns="http://www.w3.org/2000/svg">
<g id="&#240;&#159;&#166;&#134; icon &#34;emoji&#34;">
<path id="Vector" d="M10.5 20C5.25329 20 1 15.7467 1 10.5C1 5.25329 5.25329 1 10.5 1C15.7467 1 20 5.25329 20 10.5C20 15.7467 15.7467 20 10.5 20Z" stroke="#07122A" stroke-width="2" stroke-linecap="round" stroke-linejoin="round"/>
<path id="Vector_2" d="M14.7751 12.875C14.7751 12.875 13.3501 14.775 10.5001 14.775C7.6501 14.775 6.2251 12.875 6.2251 12.875" stroke="#07122A" stroke-width="2" stroke-linecap="round" stroke-linejoin="round"/>
<path id="Vector_3" d="M13.8251 7.64922C13.5628 7.64922 13.3501 7.43655 13.3501 7.17422C13.3501 6.91189 13.5628 6.69922 13.8251 6.69922C14.0874 6.69922 14.3001 6.91189 14.3001 7.17422C14.3001 7.43655 14.0874 7.64922 13.8251 7.64922Z" fill="#07122A" stroke="#07122A" stroke-width="2" stroke-linecap="round" stroke-linejoin="round"/>
<path id="Vector_4" d="M7.1752 7.64922C6.91286 7.64922 6.7002 7.43655 6.7002 7.17422C6.7002 6.91189 6.91286 6.69922 7.1752 6.69922C7.43753 6.69922 7.6502 6.91189 7.6502 7.17422C7.6502 7.43655 7.43753 7.64922 7.1752 7.64922Z" fill="#07122A" stroke="#07122A" stroke-width="2" stroke-linecap="round" stroke-linejoin="round"/>
</g>
</svg>
