<svg width="22" height="22" viewBox="0 0 22 22" fill="none" xmlns="http://www.w3.org/2000/svg">
<g id="Iconsax/Linear/lifebuoy" clip-path="url(#clip0_6370_5755)">
<path id="Vector" d="M10.9723 20.1673C16.0351 20.1673 20.139 16.0634 20.139 11.0007C20.139 5.9379 16.0351 1.83398 10.9723 1.83398C5.90958 1.83398 1.80566 5.9379 1.80566 11.0007C1.80566 16.0634 5.90958 20.1673 10.9723 20.1673Z" stroke="#07122A" stroke-width="2" stroke-linecap="round" stroke-linejoin="round"/>
<path id="Vector_2" d="M4.4917 4.51953L7.7367 7.75536M4.4917 17.4812L7.7367 14.2454M17.4625 17.4812L14.2175 14.2454M17.4625 4.51953L14.2175 7.75536M11 15.1254C12.0941 15.1254 13.1433 14.6908 13.9168 13.9172C14.6904 13.1436 15.125 12.0944 15.125 11.0004C15.125 9.90635 14.6904 8.85714 13.9168 8.08355C13.1433 7.30996 12.0941 6.87536 11 6.87536C9.90601 6.87536 8.8568 7.30996 8.08322 8.08355C7.30963 8.85714 6.87503 9.90635 6.87503 11.0004C6.87503 12.0944 7.30963 13.1436 8.08322 13.9172C8.8568 14.6908 9.90601 15.1254 11 15.1254Z" stroke="#07122A" stroke-width="2" stroke-linecap="round" stroke-linejoin="round"/>
</g>
<defs>
<clipPath id="clip0_6370_5755">
<rect width="22" height="22" fill="white"/>
</clipPath>
</defs>
</svg>
