<svg width="26" height="24" viewBox="0 0 26 24" fill="none" xmlns="http://www.w3.org/2000/svg">
<g id="Icon/Send">
<path id="Icon" fill-rule="evenodd" clip-rule="evenodd" d="M6.06716 9.45413C6.18054 9.72505 6.35792 9.96786 6.58574 10.164C6.81356 10.3601 7.08578 10.5043 7.38157 10.5856L13.8871 12L7.44274 13.3359C7.14013 13.4143 6.8609 13.5581 6.62713 13.756C6.39335 13.9539 6.21142 14.2006 6.0957 14.4764L4.54885 19.5862C4.46421 19.7844 4.44698 20.0027 4.49955 20.2106C4.55211 20.4185 4.67186 20.6058 4.84215 20.7464C5.01243 20.8869 5.22479 20.9738 5.44969 20.995C5.6746 21.0161 5.90088 20.9704 6.09706 20.8643L21.0654 12.9001C21.2353 12.8111 21.377 12.6807 21.4757 12.5224C21.5743 12.3641 21.6264 12.1837 21.6264 12C21.6264 11.8163 21.5743 11.6359 21.4757 11.4776C21.377 11.3193 21.2353 11.1889 21.0654 11.0999L6.09706 3.13575C5.90088 3.0296 5.6746 2.98391 5.44969 3.00504C5.22479 3.02616 5.01243 3.11305 4.84215 3.25362C4.67186 3.3942 4.55211 3.58147 4.49955 3.7894C4.44698 3.99733 4.46421 4.21559 4.54885 4.41383L6.06716 9.45413Z" fill="#8698A8"/>
</g>
</svg>
