<svg width="18" height="18" viewBox="0 0 18 18" fill="none" xmlns="http://www.w3.org/2000/svg">
<g id="&#240;&#159;&#166;&#134; icon &#34;settings&#34;">
<path id="Vector" d="M8.9999 12.1004C10.712 12.1004 12.0999 10.7125 12.0999 9.00039C12.0999 7.28828 10.712 5.90039 8.9999 5.90039C7.28779 5.90039 5.8999 7.28828 5.8999 9.00039C5.8999 10.7125 7.28779 12.1004 8.9999 12.1004Z" stroke="#07122A" stroke-width="2" stroke-linecap="round" stroke-linejoin="round"/>
<g id="Vector_2">
<mask id="path-2-outside-1_6324_842" maskUnits="userSpaceOnUse" x="0" y="0" width="18" height="18" fill="black">
<rect fill="white" width="18" height="18"/>
<path d="M14.3357 7.87678L13.5673 6.02136L14.6 4.8L13.2 3.4L11.9853 4.43807L10.0905 3.65882L9.65471 2H8.2867L7.84437 3.68079L5.99309 4.46117L4.8 3.4L3.4 4.8L4.41736 6.05219L3.66075 7.91241L2 8.3V9.7L3.68078 10.1588L4.46102 12.0098L3.4 13.2L4.8 14.6L6.05381 13.5782L7.8779 14.3286L8.3 16H9.7L10.1231 14.3292L11.9786 13.5608C12.2878 13.7819 13.2 14.6 13.2 14.6L14.6 13.2L13.5611 11.9746L14.3297 10.1186L15.9999 9.68404L16 8.3L14.3357 7.87678Z"/>
</mask>
<path d="M14.3357 7.87678L12.4879 8.64202C12.7292 9.22484 13.2314 9.65963 13.8428 9.81509L14.3357 7.87678ZM13.5673 6.02136L12.0401 4.73002C11.5568 5.30156 11.4331 6.09509 11.7195 6.7866L13.5673 6.02136ZM14.6 4.8L16.1272 6.09134C16.7987 5.29725 16.7495 4.12111 16.0142 3.38579L14.6 4.8ZM13.2 3.4L14.6142 1.98579C13.876 1.24761 12.6943 1.20135 11.9007 1.87956L13.2 3.4ZM11.9853 4.43807L11.2246 6.28776C11.9187 6.57319 12.7141 6.44605 13.2846 5.9585L11.9853 4.43807ZM10.0905 3.65882L8.15609 4.16695C8.31539 4.7734 8.74988 5.27003 9.32978 5.50851L10.0905 3.65882ZM9.65471 2L11.5891 1.49186C11.3582 0.61282 10.5636 0 9.65471 0V2ZM8.2867 2V0C7.37817 0 6.58378 0.612378 6.35256 1.491L8.2867 2ZM7.84437 3.68079L8.62124 5.52374C9.19305 5.28271 9.62059 4.7899 9.77851 4.1898L7.84437 3.68079ZM5.99309 4.46117L4.6639 5.95559C5.24004 6.46802 6.05945 6.60363 6.76996 6.30412L5.99309 4.46117ZM4.8 3.4L6.12918 1.90559C5.33775 1.20166 4.13475 1.23683 3.38579 1.98579L4.8 3.4ZM3.4 4.8L1.98579 3.38579C1.26109 4.11048 1.20148 5.26572 1.84774 6.06115L3.4 4.8ZM4.41736 6.05219L6.26998 6.80572C6.54495 6.12966 6.42983 5.3575 5.96962 4.79105L4.41736 6.05219ZM3.66075 7.91241L4.1153 9.86007C4.74751 9.71252 5.26878 9.26729 5.51337 8.66593L3.66075 7.91241ZM2 8.3L1.54545 6.35234C0.640316 6.56358 0 7.37054 0 8.3H2ZM2 9.7H0C0 10.6017 0.603396 11.3919 1.47328 11.6294L2 9.7ZM3.68078 10.1588L5.52373 9.38197C5.28519 8.8161 4.79991 8.39118 4.2075 8.22946L3.68078 10.1588ZM4.46102 12.0098L5.95394 13.3407C6.46757 12.7645 6.6038 11.9442 6.30397 11.2329L4.46102 12.0098ZM3.4 13.2L1.90709 11.8691C1.20169 12.6604 1.23621 13.8646 1.98579 14.6142L3.4 13.2ZM4.8 14.6L3.38579 16.0142C4.11129 16.7397 5.26812 16.7985 6.06347 16.1504L4.8 14.6ZM6.05381 13.5782L6.81471 11.7286C6.13612 11.4494 5.35915 11.5643 4.79034 12.0278L6.05381 13.5782ZM7.8779 14.3286L9.81702 13.8389C9.66187 13.2246 9.22478 12.7201 8.6388 12.479L7.8779 14.3286ZM8.3 16L6.36088 16.4897C6.58516 17.3778 7.38405 18 8.3 18V16ZM9.7 16V18C10.6154 18 11.414 17.3785 11.6388 16.491L9.7 16ZM10.1231 14.3292L9.35791 12.4814C8.77446 12.7231 8.33941 13.226 8.18436 13.8382L10.1231 14.3292ZM11.9786 13.5608L13.1416 11.9338C12.58 11.5324 11.8511 11.4489 11.2133 11.713L11.9786 13.5608ZM13.2 14.6L11.8647 16.0889C12.6555 16.7982 13.863 16.7654 14.6142 16.0142L13.2 14.6ZM14.6 13.2L16.0142 14.6142C16.7502 13.8782 16.7987 12.7007 16.1256 11.9067L14.6 13.2ZM13.5611 11.9746L11.7133 11.2094C11.4266 11.9017 11.551 12.6963 12.0356 13.2679L13.5611 11.9746ZM14.3297 10.1186L13.8261 8.18304C13.2194 8.34091 12.7218 8.77414 12.4819 9.35338L14.3297 10.1186ZM15.9999 9.68404L16.5035 11.6196C17.3848 11.3903 17.9999 10.5947 17.9999 9.68414L15.9999 9.68404ZM16 8.3L18 8.3001C18 7.38533 17.3794 6.58713 16.4929 6.36169L16 8.3ZM16.1835 7.11154L15.4151 5.25612L11.7195 6.7866L12.4879 8.64202L16.1835 7.11154ZM15.0945 7.3127L16.1272 6.09134L13.0728 3.50866L12.0401 4.73002L15.0945 7.3127ZM16.0142 3.38579L14.6142 1.98579L11.7858 4.81421L13.1858 6.21421L16.0142 3.38579ZM11.9007 1.87956L10.686 2.91763L13.2846 5.9585L14.4993 4.92044L11.9007 1.87956ZM12.746 2.58837L10.8511 1.80913L9.32978 5.50851L11.2246 6.28776L12.746 2.58837ZM12.0248 3.15068L11.5891 1.49186L7.72034 2.50814L8.15609 4.16695L12.0248 3.15068ZM9.65471 0H8.2867V4H9.65471V0ZM6.35256 1.491L5.91023 3.17179L9.77851 4.1898L10.2208 2.509L6.35256 1.491ZM7.0675 1.83784L5.21622 2.61822L6.76996 6.30412L8.62124 5.52374L7.0675 1.83784ZM7.32227 2.96676L6.12918 1.90559L3.47082 4.89441L4.6639 5.95559L7.32227 2.96676ZM3.38579 1.98579L1.98579 3.38579L4.81421 6.21421L6.21421 4.81421L3.38579 1.98579ZM1.84774 6.06115L2.8651 7.31334L5.96962 4.79105L4.95226 3.53885L1.84774 6.06115ZM2.56474 5.29867L1.80813 7.15889L5.51337 8.66593L6.26998 6.80572L2.56474 5.29867ZM3.2062 5.96475L1.54545 6.35234L2.45455 10.2477L4.1153 9.86007L3.2062 5.96475ZM0 8.3V9.7H4V8.3H0ZM1.47328 11.6294L3.15405 12.0882L4.2075 8.22946L2.52672 7.77061L1.47328 11.6294ZM1.83783 10.9357L2.61808 12.7867L6.30397 11.2329L5.52373 9.38197L1.83783 10.9357ZM2.96811 10.6789L1.90709 11.8691L4.89291 14.5309L5.95394 13.3407L2.96811 10.6789ZM1.98579 14.6142L3.38579 16.0142L6.21421 13.1858L4.81421 11.7858L1.98579 14.6142ZM6.06347 16.1504L7.31728 15.1286L4.79034 12.0278L3.53653 13.0496L6.06347 16.1504ZM5.29291 15.4278L7.117 16.1782L8.6388 12.479L6.81471 11.7286L5.29291 15.4278ZM5.93878 14.8183L6.36088 16.4897L10.2391 15.5103L9.81702 13.8389L5.93878 14.8183ZM8.3 18H9.7V14H8.3V18ZM11.6388 16.491L12.0619 14.8203L8.18436 13.8382L7.76121 15.509L11.6388 16.491ZM10.8884 16.1771L12.7438 15.4087L11.2133 11.713L9.35791 12.4814L10.8884 16.1771ZM10.8155 15.1879C10.8128 15.1859 10.8296 15.1981 10.8723 15.2322C10.9115 15.2635 10.9604 15.3035 11.0176 15.3513C11.1321 15.447 11.2639 15.5602 11.3921 15.6719C11.5194 15.7826 11.6382 15.8875 11.7254 15.9648C11.7689 16.0034 11.8042 16.0349 11.8284 16.0565C11.8405 16.0673 11.8498 16.0757 11.856 16.0812C11.8591 16.0839 11.8614 16.086 11.8628 16.0873C11.8636 16.0879 11.8641 16.0884 11.8644 16.0887C11.8645 16.0888 11.8646 16.0889 11.8647 16.0889C11.8647 16.089 11.8647 16.089 11.8647 16.089C11.8647 16.089 11.8647 16.0889 11.8647 16.0889C11.8647 16.0889 11.8647 16.0889 13.2 14.6C14.5353 13.1111 14.5353 13.1111 14.5353 13.111C14.5353 13.111 14.5352 13.111 14.5352 13.111C14.5351 13.1109 14.5351 13.1108 14.535 13.1108C14.5348 13.1106 14.5346 13.1104 14.5343 13.1101C14.5337 13.1096 14.5329 13.1089 14.5319 13.108C14.5299 13.1062 14.527 13.1036 14.5233 13.1003C14.516 13.0938 14.5054 13.0843 14.492 13.0723C14.4651 13.0483 14.4268 13.0142 14.3799 12.9726C14.2864 12.8897 14.1578 12.7762 14.0184 12.6548C13.7751 12.443 13.3908 12.1119 13.1416 11.9338L10.8155 15.1879ZM14.6142 16.0142L16.0142 14.6142L13.1858 11.7858L11.7858 13.1858L14.6142 16.0142ZM16.1256 11.9067L15.0867 10.6813L12.0356 13.2679L13.0744 14.4933L16.1256 11.9067ZM15.4089 12.7398L16.1775 10.8838L12.4819 9.35338L11.7133 11.2094L15.4089 12.7398ZM14.8333 12.0542L16.5035 11.6196L15.4963 7.74848L13.8261 8.18304L14.8333 12.0542ZM17.9999 9.68414L18 8.3001L14 8.2999L13.9999 9.68394L17.9999 9.68414ZM16.4929 6.36169L14.8286 5.93847L13.8428 9.81509L15.5071 10.2383L16.4929 6.36169Z" fill="#07122A" mask="url(#path-2-outside-1_6324_842)"/>
</g>
</g>
</svg>
