<svg width="39" height="32" viewBox="0 0 39 32" fill="none" xmlns="http://www.w3.org/2000/svg">
<path d="M36.7586 16.0997V15.9595C36.5958 15.8398 36.4397 15.7111 36.291 15.5741C32.0696 11.2868 27.8504 6.997 23.6333 2.70463C23.4375 2.50586 23.2366 2.31345 22.9179 2V9.05081C21.7514 9.20435 20.6222 9.298 19.5152 9.50697C10.8184 11.1481 5.16823 16.1851 2.85035 24.8312C2.42708 26.4125 2.28007 28.0677 2 29.6885C2.2397 29.531 2.46396 29.3509 2.66976 29.1507C4.90748 26.4251 7.8715 24.3972 11.2145 23.3047C14.958 22.1197 18.7371 22.2815 22.5345 22.9823C22.9642 23.0613 22.9331 23.3487 22.9325 23.657C22.9299 25.2638 22.9299 26.8708 22.9325 28.478V29.9012L23.1409 30C23.2464 29.823 23.3659 29.6549 23.4983 29.4973C27.5156 25.4046 31.5361 21.3155 35.5598 17.2299C35.9444 16.8387 36.3582 16.4756 36.7586 16.0997Z" stroke="#07122A" stroke-width="2.5" stroke-linecap="round" stroke-linejoin="round"/>
</svg>
