<svg width="22" height="22" viewBox="0 0 22 22" fill="none" xmlns="http://www.w3.org/2000/svg">
<g id="Iconsax/Linear/messagequestion">
<path id="Vector" d="M15.5835 16.8932H11.9168L7.83766 19.6066C7.7 19.6983 7.54 19.751 7.37475 19.759C7.20949 19.7669 7.04517 19.7299 6.89932 19.6518C6.75347 19.5737 6.63155 19.4575 6.54658 19.3155C6.4616 19.1735 6.41676 19.0112 6.41683 18.8457V16.8932C3.66683 16.8932 1.8335 15.0599 1.8335 12.3099V6.8099C1.8335 4.0599 3.66683 2.22656 6.41683 2.22656H15.5835C18.3335 2.22656 20.1668 4.0599 20.1668 6.8099V12.3099C20.1668 15.0599 18.3335 16.8932 15.5835 16.8932Z" stroke="#07122A" stroke-width="2" stroke-miterlimit="10" stroke-linecap="round" stroke-linejoin="round"/>
<path id="Vector_2" d="M11.0002 10.4141V10.2216C11.0002 9.59823 11.3852 9.26823 11.7702 9.0024C12.146 8.74573 12.5218 8.41573 12.5218 7.81073C12.5218 6.9674 11.8435 6.28906 11.0002 6.28906C10.1568 6.28906 9.47852 6.9674 9.47852 7.81073M10.9956 12.6049H11.0048" stroke="#07122A" stroke-width="2" stroke-linecap="round" stroke-linejoin="round"/>
</g>
</svg>
