<svg width="20" height="19" viewBox="0 0 20 19" fill="none" xmlns="http://www.w3.org/2000/svg">
<path d="M1 17.9936C1.89853 14.4519 2.51455 12.8026 6.37176 11.9615C6.47271 11.9419 6.56588 11.8939 6.64022 11.8232C6.71456 11.7525 6.76694 11.6621 6.79115 11.5627C6.81535 11.4633 6.81036 11.3591 6.77677 11.2624C6.74319 11.1657 6.68241 11.0807 6.60165 11.0173C5.65836 10.3228 4.9591 9.35037 4.60315 8.2382C4.2472 7.12603 4.25266 5.93062 4.61874 4.82171C4.98482 3.7128 5.69293 2.74675 6.64252 2.06072C7.5921 1.37469 8.7349 1.00356 9.90865 1.00003C11.0824 0.996487 12.2274 1.36072 13.1812 2.04101C14.135 2.7213 14.8489 3.68306 15.2218 4.78975C15.5946 5.89643 15.6074 7.09179 15.2582 8.20608C14.909 9.32037 14.2157 10.297 13.2767 10.9972C13.1902 11.0573 13.1233 11.1414 13.0843 11.2389C13.0453 11.3364 13.036 11.4431 13.0573 11.5459C13.0787 11.6486 13.1298 11.7429 13.2045 11.8171C13.2792 11.8912 13.3741 11.942 13.4774 11.9631C17.3363 12.8035 17.8325 14.8085 18.85 18" stroke="#07122A" stroke-opacity="0.5" stroke-width="2" stroke-linecap="round" stroke-linejoin="round"/>
</svg>
